<mxfile host="app.diagrams.net" agent="Mozilla/5.0 (X11; Linux x86_64) AppleWebKit/537.36 (KHTML, like Gecko) Chrome/133.0.0.0 Safari/537.36" version="26.3.0">
  <diagram name="Page-1" id="xTwsQA_4NdTIuQrTMJwi">
    <mxGraphModel dx="5037" dy="513" grid="1" gridSize="10" guides="1" tooltips="1" connect="1" arrows="1" fold="1" page="1" pageScale="1" pageWidth="850" pageHeight="1100" math="0" shadow="0">
      <root>
        <mxCell id="0" />
        <mxCell id="1" parent="0" />
        <mxCell id="BQTzeHHqQLochg_NkmRf-2" value="" style="rounded=1;whiteSpace=wrap;html=1;movable=1;resizable=1;rotatable=1;deletable=1;editable=1;locked=0;connectable=1;" vertex="1" parent="1">
          <mxGeometry x="-80" y="1310" width="2090" height="1770" as="geometry" />
        </mxCell>
        <mxCell id="vA6beivC7NnF0CchnOPw-36" value="" style="group" parent="1" vertex="1" connectable="0">
          <mxGeometry x="30" y="1390" width="2010" height="1670" as="geometry" />
        </mxCell>
        <mxCell id="vA6beivC7NnF0CchnOPw-35" value="" style="rounded=1;whiteSpace=wrap;html=1;rotation=0;movable=1;resizable=1;rotatable=1;deletable=1;editable=1;locked=0;connectable=1;" parent="vA6beivC7NnF0CchnOPw-36" vertex="1">
          <mxGeometry width="1890" height="1620" as="geometry" />
        </mxCell>
        <mxCell id="vA6beivC7NnF0CchnOPw-34" value="&lt;font style=&quot;font-size: 18px;&quot;&gt;&lt;b&gt;AZ us-east-1a&lt;/b&gt;&lt;/font&gt;" style="text;html=1;align=center;verticalAlign=middle;whiteSpace=wrap;rounded=0;movable=1;resizable=1;rotatable=1;deletable=1;editable=1;locked=0;connectable=1;" parent="vA6beivC7NnF0CchnOPw-36" vertex="1">
          <mxGeometry x="110.00093220338984" y="10.00391304347826" width="256.271186440678" height="84.52173913043478" as="geometry" />
        </mxCell>
        <mxCell id="4bWy2ilgJK2MeaBhGG6L-17" value="" style="group" parent="vA6beivC7NnF0CchnOPw-36" vertex="1" connectable="0">
          <mxGeometry x="-231.5" y="1210" width="359.64" height="100" as="geometry" />
        </mxCell>
        <mxCell id="4bWy2ilgJK2MeaBhGG6L-13" value="&lt;font style=&quot;font-size: 18px;&quot;&gt;&lt;b style=&quot;&quot;&gt;&amp;nbsp; Internet gateway&lt;/b&gt;&lt;/font&gt;" style="rounded=1;whiteSpace=wrap;html=1;align=left;" parent="4bWy2ilgJK2MeaBhGG6L-17" vertex="1">
          <mxGeometry width="359.64" height="100" as="geometry" />
        </mxCell>
        <mxCell id="4bWy2ilgJK2MeaBhGG6L-15" value="" style="outlineConnect=0;dashed=0;verticalLabelPosition=bottom;verticalAlign=top;align=center;html=1;shape=mxgraph.aws3.internet_gateway;fillColor=#F58536;gradientColor=none;" parent="4bWy2ilgJK2MeaBhGG6L-17" vertex="1">
          <mxGeometry x="223.22482758620689" y="14" width="85.5695172413793" height="72" as="geometry" />
        </mxCell>
        <mxCell id="BQTzeHHqQLochg_NkmRf-9" style="edgeStyle=orthogonalEdgeStyle;rounded=0;orthogonalLoop=1;jettySize=auto;html=1;entryX=0;entryY=0.5;entryDx=0;entryDy=0;" edge="1" parent="1" source="4bWy2ilgJK2MeaBhGG6L-14" target="vA6beivC7NnF0CchnOPw-16">
          <mxGeometry relative="1" as="geometry" />
        </mxCell>
        <mxCell id="BQTzeHHqQLochg_NkmRf-10" style="edgeStyle=orthogonalEdgeStyle;rounded=0;orthogonalLoop=1;jettySize=auto;html=1;entryX=0;entryY=0.5;entryDx=0;entryDy=0;" edge="1" parent="1" source="4bWy2ilgJK2MeaBhGG6L-14" target="4bWy2ilgJK2MeaBhGG6L-13">
          <mxGeometry relative="1" as="geometry" />
        </mxCell>
        <mxCell id="BQTzeHHqQLochg_NkmRf-19" style="edgeStyle=orthogonalEdgeStyle;rounded=0;orthogonalLoop=1;jettySize=auto;html=1;entryX=0;entryY=0.5;entryDx=0;entryDy=0;" edge="1" parent="1" source="4bWy2ilgJK2MeaBhGG6L-14" target="kthAWzpPzz_Ot7cgUqlj-7">
          <mxGeometry relative="1" as="geometry" />
        </mxCell>
        <mxCell id="4bWy2ilgJK2MeaBhGG6L-14" value="" style="image;aspect=fixed;perimeter=ellipsePerimeter;html=1;align=center;shadow=0;dashed=0;spacingTop=3;image=img/lib/active_directory/internet_globe.svg;" parent="1" vertex="1">
          <mxGeometry x="-720" y="2340" width="200" height="200" as="geometry" />
        </mxCell>
        <mxCell id="kthAWzpPzz_Ot7cgUqlj-15" value="Security group&lt;div&gt;&lt;br&gt;&lt;/div&gt;&lt;div&gt;SSH&lt;/div&gt;&lt;div&gt;HTTPS&lt;/div&gt;&lt;div&gt;HTTP&lt;/div&gt;" style="fillColor=none;strokeColor=#DD3522;verticalAlign=top;fontStyle=0;fontColor=#DD3522;whiteSpace=wrap;html=1;" parent="1" vertex="1">
          <mxGeometry x="-950" y="1170" width="100" height="90" as="geometry" />
        </mxCell>
        <mxCell id="kthAWzpPzz_Ot7cgUqlj-16" value="Security group&lt;div&gt;&lt;br&gt;&lt;/div&gt;&lt;div&gt;SSH&lt;/div&gt;" style="fillColor=none;strokeColor=#DD3522;verticalAlign=top;fontStyle=0;fontColor=#DD3522;whiteSpace=wrap;html=1;" parent="1" vertex="1">
          <mxGeometry x="-950" y="1300" width="100" height="60" as="geometry" />
        </mxCell>
        <mxCell id="kthAWzpPzz_Ot7cgUqlj-17" value="Security group&lt;div&gt;&lt;br&gt;&lt;/div&gt;&lt;div&gt;TCP:5432&lt;/div&gt;" style="fillColor=none;strokeColor=#DD3522;verticalAlign=top;fontStyle=0;fontColor=#DD3522;whiteSpace=wrap;html=1;" parent="1" vertex="1">
          <mxGeometry x="-950" y="1400" width="100" height="60" as="geometry" />
        </mxCell>
        <mxCell id="kthAWzpPzz_Ot7cgUqlj-21" value="" style="group" parent="1" vertex="1" connectable="0">
          <mxGeometry x="-1800" y="1670" width="280" height="110" as="geometry" />
        </mxCell>
        <mxCell id="kthAWzpPzz_Ot7cgUqlj-22" value="" style="rounded=1;whiteSpace=wrap;html=1;" parent="kthAWzpPzz_Ot7cgUqlj-21" vertex="1">
          <mxGeometry width="280" height="110" as="geometry" />
        </mxCell>
        <mxCell id="kthAWzpPzz_Ot7cgUqlj-23" value="" style="shape=image;imageAspect=0;aspect=fixed;verticalLabelPosition=bottom;verticalAlign=top;image=data:image/jpeg,/9j/4AAQSkZJRgABAQAAAQABAAD//gAfQ29tcHJlc3NlZCBieSBqcGVnLXJlY29tcHJlc3P/2wCEABISEhITEhQWFhQcHhseHCkmIiImKT4sMCwwLD5eO0U7O0U7XlNlUk1SZVOWdmhodpatkYqRrdK8vNL/+/////8BEhISEhMSFBYWFBweGx4cKSYiIiYpPiwwLDAsPl47RTs7RTteU2VSTVJlU5Z2aGh2lq2RipGt0ry80v/7///////CABEIAfIEsAMBIgACEQEDEQH/xAAyAAEAAgMBAQAAAAAAAAAAAAAAAQYDBAUHAgEBAAMBAQAAAAAAAAAAAAAAAAMEBQIB/9oADAMBAAIQAxAAAAC8AAAAAAAAAAAAAAAAAAAAAAAAAAAAAAAAAAAAAAAAAAAAAAAAAAAAAAAAAAAAAAAAAAAAAAAAAAAAAAAAAAAAAAAAAAAAAAAAAAAAAAAAAAAAAAAAAAAAAAAAAAAAAAAAAAAAAAAAAAAAAAAAAAAAAAAAAAAAAAAAAAEEuZ8cx9ZE9SAAAAAAAAAAAAAAAAAAAAAAAAAAAAAAAAAAAAAAAAAAAAAAAAAAAAAAAAAAAAAAAAAAAAAAAGGucxdqs86IqAcVt+zUqe7Hos1SyS6GcdSgAAAAAAAAAAAAAAAAAAAAAAAAAAAAAAAAAAAAAAAAAAAAAAAAAAAAAAAAAAAAAAAAAAEczzno8Ph6kdH7xyjpwHIAeGTG96sve882u7l9cjrS3pHvQAAAAAAAAAAAAAAAAAAAAAAAAAAAAAAAAAAAAAAAAAAAAAAAAAAAAAAAAAAAAAAAxPMulw+JHV6XKIqAIwAAAAAHR5x3eN/zrtS37WwZ+7Ye+gAAAAAAAAAAAAAAAAAAAAAAAAAAAAAAAAAAAAAAAAAAAAAAAAAAAAAAAAAACCfnm1viDt1vEiz4THkAAAAAAAAAAGSxVmfZvQ/uiWSXQ66J7sAAAAAAAAAAAAAAAAAAAAAAAAAAAAAAAAAAAAAAAAAAAAAAAAAAAAAAAAAGOucx9ytcz4ioQOaswPAAAAAAAAAAAEwJge9Oz0X76s+iKtY5b+YdSgAAAAAAAAAAAAAAAAAAAAAAAAAAAAAAAAAAAAAAAAAAAAAAAAAAAADnec7/ABuJzo6WfAR0kwcgAAAAAAAAAAAAAAAMuI6tPb873u7l5cnqy3pHvQAAAAAAAAAAAAAAAAAAAAAAAAAAAAAAAAAAAAAAAAAAAAAAAAADWzUXmDe5PyhzA84B4AD06nX9nqi4Yfe6q6/I8gDyMAAAAAAfbr4WLe6sU9a+F5zojyuAAA63JeyXzb88v0ullHdgAAAAAAAAAAAAAAAAAAAAAAAAAAAAAAAAAAAAAAAAAAAAAAAADFQL/QIqHwIqIe+AALFxL53d+5JtECNDoPOaBr3mlw5mIc1gAAAAJufAuMmikluseQ8pHPttSgyg5rgAAL/QL/Je2BLoAAAAAAAAAAAAAAAAAAAAAAAAAAAAAAAAAAAAAAAAAAAAAAAAAYvP/QPP4qHyIqIe+AAb15o94k0wltgAOR148587iyVuDJgeQgAAB47tqqtqn1g7sAc2k3ekQ50jikAAAv8AQL/Je2BLoAGvy+eO45fSe/SJ66AAAAI53nPScLqc+bI77AAMet5zutJ55utIbrSG60xuNM93GLL76HvoABo8COK2qzZPevod9jD55mczZ852h12AAAAIJaeDnjpsf371I99Pjkc8dpyOo9+x10AAAAMXnmVxMvPHWRPcgAGLz/0Dz+Oh8iKiDwADevNGvMumElsAACKtavjmPzyOjzoMgHAAAeO7aqrap9YO7AHOpF3pMOcHFIAABf6Bf5L2wJdBw+359BXx/EqOZG7pver9s0e7X9P7EswAAgrVd3dLOyn38RHFet+u2LR1gkkGj55weH9/GdkwOIw8EiEiJHvatvnN0uXemLV0B8/Wp55SteJzMZZK31e5bmidHV1KNYqzSzwr1LT36Je7+oE04AA+XmKnfXMpUArVM1upe1PYv0To3tGqaMTmZEbWs8Xne8/uV/R3xNYAAQ4vPH3U8ajmwlDD2rd5z6Bd0cws2gMXn/oHn8VD5EVEPfAAN680a8y6YSWwAAAMNIvunxBRGTHDlA5AA7tqqtqm1g7sAc6k3akw5wcUgAAF/oF/kvbAl0Pnzr0XzqrSgUqKJEdvipO/Rvqu2HQ1ZHfYCJjxQtXa1czHDjiyWSt2TS1Qlm+adY6PVphSoDpddc13HcnDjujhu4OG+vmOFu6Trr0TJX7BpawddtLd0ueKHMTl47q8rq9yXMaevWa5Y65n5ciGvt32hX27ohZtgCBVdqsVKQVKIh5MxPvfoutszp6/nDrcnOyQ44ZMb3287/ntyv6PQE1lDi88Km+aGbMShgiUe+579XrJe0pFiyBi8/8AQPP46HyIqIPAAN680e8S6YSWwI5nToXEF+c7o9Sh70Byqf6LwIqlXTEeaDwPHdtNWtU+sHdgDnUm7UmHODikAAAv9Av8l7YEuh8edei+dVKQVKIAeJuFOyzTehtHe0NQPfUTHihau1q5mPEnPFkslbsmjqonj9ycDnGbkhxxnvvH7ehpyJ7AAFYr3olEpUNYVqeS+ef9mxat6JvaLS3dLnihzE5eQ6nL6nfd0Gnr1quWOuZ+WENfbvtCvt3RCzbAcnYpMFb4goZoAeExPXXov18/WpsYKTfMEcXn7e0aGYHHLLide3jf8+7V2/u1SIrVQihAdX7tlq5P3E27we+gYvP/AEDz+Kh8iOiDwADevNHvEukElwB596D59FSm70Ld5hvL4+59IHqJFU4nodOhocwR0AO7aqrap9YO7AHOpN2pMOcHFIAABf6Bf5L2wJdD4879E87q0vmSnRdzh2aWev4bnTSBFBtXfz7pWbV2fH3d0ETHntC1drVzMcOeLJZK3ZNHV+aFYqpDWiSnTb2jcZp+p9xOjqAAAOV1XPNBX1BWoS+jR3ixanU2xQl8V6tD6NrddSJ7NarljrmflhBX277Qr7e0Qs22vkpcUOvrmflj6M3U7nJt3K6KVJ9fM9dei/Xz9amwHvuCl3rBFD5+39DPzA55D0HgPUdlbLVyfpNy+AABi8/9A8/iofIioh74ABvXmjXmXTCS2A8+9B8+ipYRHnda3+dWDu/ZxNfAYcx5QtW90mDMxDmr3bTVrVNrB3YA51Ju1JizgjpAAAL/AEC/yXtgS6Hx536J53VpQKdFZqzZprFg4XeXdDzmO7ws/KCPjuWrzm0Xb1ggs3aFq7WrmY4c8WTvcHs6GnStbJjo58jjjpXXg97R0xz5Z8vOrGOnQtKrOOLSqwtKrPVpmqC1zU5LXu0m9zWdrFm0p7GiqKnQt+ek9Xrq6Im5frVcsdcz8tEoa+3faFfbui+ZrU0+tx4Z2WHMf1bNWx3NBWrNWZZq6M3KfXz9ddeifXz9amwHvoGCl3qvwVqvJQzQ8AOzx7nYsdH7+fq/pgAAAYvP/QPP46HyIqIPAAN680a8y6YSWwHn3oPn0VLCI85MS9tfa87ucun0hJaAczpvOfOvm01eDJ7lqq1pl0A7sAc6k3akw5wcUgAAF/oF/kvbAl0Pjzr0XzurShE06KzVmzT2LDJf0/imXbBHF5829TOyn18vPLl1PPbvf0qfp7mnSoSOY7JY65Y9HWrFe9EoFerimJrVNi+ed2SzcsddsXPs26Q+vnOyQ85RJ7BJCXgZOnbtGDPo606W7p9d0KYnLxnU5fU7kucxOnr1quWOuZ+WIgr7l8odqu39epffxXrhFA6+vdLVz7mV3QVqy1mKGujNykx9ddeifXz9amwHvqHF54VIoZpCGGUSAMmOOvbzv+eXO9o9FEz2QAAMXn/oHn8VD5EVEPfAAN+8Ua8y6YSWwHn3oPn0VLCI84BlxHV92qJd5tXIO5wFXtHzzHV7Vyes8DqUDnUm7UmHODikAAAv9Av8l7YEuh8ed+i+dVaMCnSWas2aaxYZidDTA0aT6Jya9ampijmtvUe+7GueAeWSx1yyaOpHAsGPqTzqdzTzclmwnnoGerWnR1dTlWF77W1kec1tZHit8G1U+tTCtWWThX61c+xdvtLd0ueKHMTl47qcvqdyXOTT161XLHXM/LRKCDO1566iTzlsYrrNPn2S/ph76rVlrUUNcGdlPr5+vevRPr5+tTYQ4vnMVMoZsJQwxMT74ydS0WLXn7e0YYA45ZMbr279Dz25X9HoiayABi8/9A8/jofIiog8AA3rzRrzLphJbAefeg+fRUsIjzgAHT5hJ6L9Vezz60jqQCJAADnUm7UmHODikAAAv9Av8l7YEuh8ed+ied1KUCpRWas2aaxYhoaYAFcrXo1TqUuKKdEHge+2SyVuyaOqEs3Hp/o9IqUeeKlKb3Q9uae+Kgs27fNPFv8Aip6/nmHVKVBDdeWDt/H3p7Ejrpp7mlzxQycvHdTl9TuS6DT161XLFXc/LCCABMWOWTc7MToaoddAK1Za1FDXBnZT6+fr3r0SYjU2OVT8uLPzETEMAn3x2Ztlq7H1K5fwUy84oofPW9o0MwOOX38Ovb3u0i7aGpIlmAxef+gefxUPkR0QeAAb15o15l0wktgPPvQfPoqWER5wAAC01b69n9Fcvpz6sj3oAADnUm7UmHODikAAAv8AQL/Je2BLofPnXo1DrU9QilQmzVi5z2erJf0gAGLK88o2hf6VSztUVqoj32zWPkdbS1pEkrndGOefOY7HGzsmUOI5QJQeygSgTceBdbl0LV6QNPcx88+dTkx5mO6nL73clpmJ0tWuVq7UmjnBXrDqdd5Ld85NDTCSUABW7JyuIqYMzJfXz0eu7ro7+vpavn8zGZjiPDtRbrV2PsuXgAMFNvGKKHz1v8+hmSOOZ9Ao19u3/sWrgGLz/wBA8/iofIjog8AA3rzRrzLpBJcAefegefxUsIjzgAAAM91om11avjHkn0wegAc2lXWlQ5wcUgAAF/oF/kvbAl0I0t555S8V5Q1q5YpSzh12AAAw5nnlZ513RQUjr2AQlNYAA1apdUUVKXVxHSl1FKXUUpdRSl1HP6BPOHvQAHDr19QwUq3Z3XQSSxyus55qS2o4uJ2PtJIHXYAAAHG5VuRQ1iwZ3XSJdycHgX2Ia9F7Vgk+PsmsAAAAYq5aHEdDm9ooeV1SewHvQGLz/wBA8/jofIiog8AA2L553aO73fRM2gBhoHc4MOaHFMAAAADp3Hzvr93bgxZZtAHoxPOTU97Rr5QeVwAAF/oF/kvbAl0AAAAAAAAAAAAAAAAAAAAAAAAAAAAAAAAAAAAAAAAAAAAAAAAAMdB9C5nFeltvUhzAcAAJg97nWpruxcuLx3gOa4PAAAAAAM3crr2a4/dLdS2mv6zmMPIAAABtOtb0Dn9WbSkd2gAAAAAAAAAAAAAAAAAAAAAAAAAAAAAAAAAAAAAAAAAAAAAAAAAPjhWB5x5/g9Ar0VDgJjioDwAAAAAAAAAAAAAAAAHrL1bL3a4lg+0t8PZAAAAAAAAAAAAAAAAAAAAAAAAAAAAAAAAAAAAAAAAAAAAAAAAAAAAANGsXWOYfOVxrEWfqjmAHgAAAAAAAAAAAABsWb2xwLRvzNfiTqcAAAAAAAAAAAAAAAAAAAAAAAAAAAAAAAAAAAAAAAAAAAAAAAAAAAAAAAB8fZ5XOB6DgjrUB3OJHnwPIwAAAAAAAAAB2EnL73b2pb+LKSWgegAAAAAAAAAAAAAAAAAAAAAAAAAAAAAAAAAAAAAAAAAAAAAAAAAAAAAAAAAANDfOaTz/RuNFTqLa1o6MByAAAAAAMzrDvdztyXed0kyXQ96AAAAAAAAAAAAAAAAAAAAAAAAAAAAAAAAAAAAAAAAAAAAAAAAAAAAAAAAAAAAAAAx8GxR5H57jv1Zhoccc1QeAAA9ffUsvdriWHKkvh1IAAAAAAAAAAAAAAAAAAAAAAAAAAAAAAAAAAAAAAAAAAAAAAAAAAAAAAAAAAAAAAAAAABz6xd44g85WuuRZ+uPITLY/ZuLZuj9S6ESdzgAAAAAAAAAAAAAAAAAAAAAAAAAAAAAAAAAAAAAAAAAAAAAAAAAAAAAAAAAAAAAAAAAAAAARjyvPK58WZ5FiyS9liT30AAAAAAAAAAAAAAAAAAAAAAAAAAAAAAAAAAAAAAAAAAAAAAAAAAAAAAAAAAAAAAAAAAAAAAAAAAAAAAAAAAAAAAAAAAAAAAAAAAAAAAAAAAAAAAAAAAAAAAAAAAAAAAAAAAAAAD//EAEAQAAIBAgMDCgQDCAICAgMAAAECAwAEBREgMDFyEBIhIjIzNEFRcRMVUlMUYJEjQEJEYXBzsQZQQ4EkYoCQof/aAAgBAQABPwD/APYOSBVziltb9AYO3oKt8WtpiFJ5jGgc/wCyVziFtbdt8z9Iq8xO4uWIUlI/TltcRntm7RdfpNWuJW1zkA+T/Sf7HyzxQrzpHCj1NXeNSszJAAF+umZmPOYkn1OkEqwYHIjcRVpjMyELOQy+tQ3EU6ho3BH9i3dUGbEAVd41GuaQdY+tSSSSnnSyFjsUkeJg6MQw8xVpjSdm46D9VRyJIodGBB/sOavMTgtgQGDP6VcX9zdd42Q9Btbe8uLYgxyHL6TuqyxWK4GUhCPQII/sJc31vbZh3630ir3FJrjIRkxp+4dHmKtMSntmALF4/pq1xC3uuhGyb6T/AGBkmjiUs7AAVc43I3RAuQ9TUjvK5d2LN6n9zVmRucrFT6irbGpo8hMOevr51DcxToHRgRQ/PjMFBLHICrrGoUBEPXapp5Z3LSOWP7vFNLC3OicqatMaQhUnBB+qkkSRQyMCPUfnnOr3E4bUZDrufKrnELm5Jzfmr9I/e7W+uLTu26v0mrPForghGHNes/zrnVzewWwzkf2FXuKzTsViJjT9+8xVnik1sSGJdPQ1a31tcgcx+t9Pn+c5ZUiQs7AAVdY2xZkgTo+s1JJJK3OkcsfU/wDQo7RsHQlWHmKtsalTITqGHqKhmSZA6MCD+b2YKCSausZgiJSIF2qa4mnOcshb/pYZ5YGDRuVq0xmFgFn6jetKysAVOYP5svMRhtBkes3oKucTubnqk81fQf8AU22I3VtkFfNPpNWWKRXQ6eo3oaH5ouLqG2XOVwKvMXlnzSLNFonM5/8AWWWLTQELKS6VbXsF0CYnz9R+ZpG5iM3oKvJ3uZ3dz55AbO0wqe6HOb9mtJgVqB1y7V8lsfoP60+BW57LuKucHuIVLIRIKIIJBBBHkf3CON5GVEGbMcgKgwLznkPstDBbL6T+tSYHbHsMy1eYfNaHrdZPqGzhmkgcPGxBB/WoX+JGj/UAfzLP3UnCafvH4jssJw8MBPKvAKA03dhDcqc1AfLoari1mtnCSD2PrtgCxAAJJ6BWHWS20C5qPiEZsdEkayKVYZgjIisRsjaTZAdRuzs7Tw8PAPzLP3MnCak7x+I7G2iE08UZ3M1RII0VF3AZDXe2Ud3HzW6CNxqaJoZXjbepy2uDxCS7zO5FzoacbjDWnP8ANDs7Tw8PAPzLP3T8JqTvH4jscM8dB7mhsMSsBcpz07xRRzDMCMiDkRtMB8RNwasV8DLQ3bK08NDwD8yz91JwmpO8fiOxwzx8Hudli2HZqZ4V6w7Q2mBeIm4BqxbwU1DdsrTw0PANGdTXMMHTI4FPjtqu5XNQ4vaTfx83ipXDAFSCKz2ROVT4rawHItzj/Shj9tn3clQ3cM4zjcHXJIsalnYADzNfMLT7yfrX4+0++n61+PtPvp+tfj7T76frX4+0++n61+PtPvp+tfj7T76frX4+0++n61+PtPvp+tfj7T76frX4+0+8n61HKkq85GBHqNhe30dpHzm6W8lpsdujuSMVb46xZRPGACe0KVgygggg6JJo4gWkYKP602LWanLn1DeW83YkU0NmTlUt/axdqVaTFbNz3gFJIrjNWBFZ8ryLGpZmAA3k1JjdrGcsmNQ4zaysF6V96V1YZgg7SSaOIZu4AqTHLZMwAzVBi9rMcsynFQIOqfun4TUnePxHY4Z46D3OyNYrh7Ru9xGBzD2hs8C8RNwDVivgpqG7ZWnhoeAaMUxIQAwxH9p/qmdnObsWPqeWyvZbSQHnEp5rVtcxXMYkiOY2WM3rq/4eM5fUeVJHiZXQ5MPOsPufxVssnnubVjV0XmECHqp29mKwi8EL/BfsueihqdgqkncKuZzPPJIfMnL25cCuCfiQMT6jlvLgW0DynyFSyyTMWkcsc/M8gzG4kVhGIGUCCUkuNx2U8yQRPI5yAq8xGW5fqlkj8lo5enJDPNAwaNyCDWHYit2CpGUg5GIUEncKvr2S6lbrH4YPVHLb3k9swMbnLzWrS/gu16h6w3rsSav8TS2VkQ5y/wCqlmmmcvK5Y8uEXzpOIZHJRhkuqfun4TUnePxHY4Z46D3OzdFkUqwzBGRFYjYmzcEHONt2ywLxE3BqxXwU1DdsrTw0PAOUnIVdP8S5mc+bnTYX72b+qNvFIwdQwOYI2BrEWL3s5ProwFiY5l8udpv7n8NbPJ57lp5HkdnY9ZjmdoCQQRvBzFYbe/i4et2136r8kWkpHpowXxvuh5cdkPwkj9W0YaxW+gP9ctixAGZrEb97qR0ByiB02UzQ3UTA5ZsAaFYlIY7SUj6Tpt55LeYSR7/91Y3qXkfOHQRvXYYlif4UiOPIuaZmdmdiSxPSdCMUdGG8MDUDF4Y2O8qDpn7qThNSd4/EdjhnjoPc7SeGOdCkigqau7V7WZkYHL+E7HAvETcA1Yr4Kahu2Vp4aHgHK/ZNP234jqwi/MMnwZX6h7NA5jPYX/jJ+LRgG6fQaxW8NxOYx2EO2sLr8LOHPZIyakZXVWU5gjMacQ8JL7UOXBvHLwnlx7/xaLDxtvx7A1i2IiU/BgfqjtEak7yPiFLuFXkRmtpUG8qa99MU0sDh43INWV9DdoOaesN66sSxJIEaONs5f9UzM7FmOZO86baMyzxRjzao15iKvoMtM/dScJqTvH4jscM8fB7mhtLy0juomRt/kakjeJ2jdcip/XYYF4ibg1Yr4Kahu2Vp4aHgHK/ZNN234jrwnEC4+BK3SOyaB13/AIyfi0YBun0YhdC2gdv4iMlokkknRaYXPdJzwQor5DcfdWvkNx91a+Q3H3Vr5DP91a+Q3H3Vr5DP91akRo3ZG3qSDyisFvOfH8Bz0p2dOIeEl9qHLg3jl4Ty49ui0WHjbfj1k1iuJGItbxdojpbWneR8QpeyOTFbE20plXsOf01W88ltIske/wD3VjfJeRc4DJhvXlNYnif4UiKMAuRTMzuzsc2O86sGsSD+Jf06g1T90/Cak7x+I7HDPHQe51GrK/EzyQu2UiOR7jXidh+LiBTISLuNMjI7IwyYHIjXgXiJuAasV8FNQ3bK08NDwDlfsmm7b8R1gkEEHIjdWHYgtygRjlKo6aGk1f8AjJ+LRgG6flYhRmaxS5FzdEqeonQNFtA1xMkYByJ6T6CkQIoVRkANeNWT878Sm4Dr6IpDFKki71OdW9xHcRq6HMaMQ8JL7UN3Lg3jl4Ty49ui0WHjbfj14jiCWi8wdMjCixYkkkknMnWneR8QpeyPbknhSeJ43GYIq8sZbJsm6VPZbVDPJA4eNyDVlfRXa9U5MB0ryYliSwI0UTZy/wCqZmclmYljvOrDsNe4KyuMogf1pVCgADIDVP3T8JqTvH4jscM8dB7nUakd47uSRDkyytlVhfLeR+jLvGvFMNVw9xF2/MeuvAvETcA1Yr4Kahu2Vp4aHgHK/ZNN234joyOWeXRohmkglWRD0irC8F3AH3HcRpNX/jJ+LRgG6flxe6MNvzB2n6NOD2gjg+Ke09DXJGsiMjDMMMjV3ataztGd3kdGDXfwZjEx6r0Dy4h4SX2ocuDeOHCeXHt0Wiw8bb8eq+vFtIWfe3kKmmknkMkhzY6MjoTvI+IUvZHtyz28c6FJFBFXtjJaP6odzaoLiW3kEkZyapMcYwLzE/ammJZ2diSzHMk6sNww3BEkvd/7pESNAiDJRuGufun4TUnePxHY4Z46D3Oo1P383+Rqt7iS2lWRKtbmO5hWRDqIrFrD4R+PEvVPbAry04F4ibgGrFfBTUN2ytPDQ8A5X7Jpu2/EdGG2wurS4jP/AKqeCW3kMcgybRaXUlrKHUnL+IVBMk0SyIcwdBq/8ZPxaMA3T8jEKCTuAq9uGubiR8yVz6ujD7Y3F0i5dUdLUqhQABkBscUszdQdReupzFfgbv7D1+Bu/sPX4G7+w9fgbv7D1YSSvbp8VCrr0EGhyXys9tIFGZIo4fe/YavwF79hq/AXv2GrCrS5iuw8kRUc08hrHv8AxaLDxtvx6bm5itoy8jZCrq4e5neVjwj0Gi2tpLmVY0HufQVi1vHbQ28aD10J3kfEKXcPbRPCk8bRuoINXtlJZSZP0qey20w3DTcESyD9n/ulUKAAMgNhP3T8JqTvH4jscM8fB7nUan7+b/I3JZX0tm/R0xk9ZajdZEDKcwRqdFcFWGYNYlYm1csndE/ppwLxE3ANWK+CmobtlaeGh4Byv2TTdt+I6MB7uWsRsEu1B3Ou40QyllIyIORGjDr57WXJjnEx/So3V1DKcweU1f8AjJ+LRgG6fkxm+MCfBTtSDThdl+Gi557bgE7PKsqy1ZaTWPbotFh42349EjrGjOxyAGZq/v2vHGQyjXcNCqzsEUEk9AFWNlHaRAb3PaNY/wDy/udCd5HxCl3D20z28VwhSRcxV9YyWj+qHc2yw3DTcESSjKMf/wBpEWNQqjIDYz90/Cak7x+I7HDPHQe51Gp/ET/5G5cLvxauySMfhtSsGAI3HVNEk0bIwzBFXdpLaSBX3HcdGBeIm4BqxXwU1DdsrTw0PAOV+yabtvxHRgHdzcmLWHxUM0Sdcb6/9ZaMKxBIc4ZmyUnqGhy3/jJ+LRgG6epZVijZ3OQUVeTm5uJJfIno0YZaNcTq2XURumhy3F9bW/RJIAfSmx22G5HNfP4PsvXz+D7UlfP7f7UlfP7f7UlfP7f7UlfP7f7UlfP7f7UlfP7f7UlDHrX7clfPrX6JK+e2v0SVZ36XgcxowC+Z5J5VgjaRs8hXz6z+mSvntn6PXz2z/wDvVtiltcyiNOdny49ui0WHjbfj5SQKxTEDO5ij7sH9dABJAAzzOQrCrBrZC8oHxG5P+Qfy3udCd5HxCl3D20mp4UnjaNxmCKvbGWzfJulTubYYZhpuMpZO7/3SgKAAMgNlP3T8JqTvH4jscM8dB7nUan7+f/I3LlnWFYkQUtpfZWoaryziu4+a+8bjU8LQTPE29Ty4F4ibgGrFfBTUN2ytPDQ8A5X7Jpu2/EdGAd3NyZA1i9h8J/jxDqt2hpwrEmmPwJe0B0NWfJf+Mn4tGAbp6u4PxFvJFnlmKkjaJ2jbehy0YFJGYGQdoNy4ldm1ty69onIVLI8rmSRucx89oil3VBvYgCrS2jtoQiD3PJiHhJfbRg3jhwHlx7dFosPG2/HyGsXxBh+wiPERpwrDhklzJ7qvLj/8t7nQneR8QpeyPbSeTGLyNAIeYHY61ORHQD/Q1hl1HPAAqhCnQV2c/dPwmpO8fiOxwzx8HudRqfv5/wDI2j231heI/HHwpO8UfrQOrELEXUJ5oHxBuNMrKSrAhhvB5MC8RNwDVivgpqG7ZWnhoeAcr9k03bfiOjAO7m5WUMCCMxWIWElrIzjuier/AE0KzKwZTkRuNYZfC5iCsf2i7+S/8ZPxaMA3T8mNWb88XCDq5dfRaTm3uI5BuB6aR1kQMpzBHJj+fMg4jtcFs+cTcuOChyYh4SX20YN45eE8uPbotFh4234+TE8RSFHhQ/tSKJzOjDMPNy3xH7sUAAABy/8AIP5b3OhO8j4hS7h7asSxOOFHiifOX/VEljmSSfM7CGWSFw0blTVlfw3agKcnA6V2U/dPwmpO8fiOxwzx8HudRqfv5/8AI2lWKMrKSCNxrDr5buIZkCQdoa8Ww/4q/HiHXG8eo5MC8RNwasV8FNQ3bK08NDwDlfsmm7b8R0YB3c2ieFJ4mjfcwq8tTaTmLeN6nRFNJBIsiHIirS6juYVkX/2Kv/GT8WjAN0/JLGssbI25gQamiMM0kZ/hbLRgl0Tz7d/deTErU3VsyjtDpWmVkZkdSrA5EbOGJ5pFjTeatoRBDHGP4Ry4h4SX20YN45eE8uPbotFh42346xG+FnECBm7bhUkjSOztvY5nRh9m13NkRlGO0ajjWNQqjIDR/wAg/lvc6E7yPiFLuHty50TWJYp+GPwowC5H6UTmSTvJzOygleCVZY+0Kw+9W7i525xvGxn7p+E1J3j8R2OGeOg9zqNT9/P/AJG1QSvBMkqbwatrqK6QPG2vFsOKlriIdX+IVgPfzcGrFfBTUN2ytPDQ8A5X7Jpu2/EdGAd3NpvbOO6iKsOsOyakikikaN1IYaLK6NrOr/w7mFXciy3EsibmOjAN0/LjVqGj+OqdZe1ot5jBNHKP4TVvOlxCki7m5Liyt7jvIwT602AxnsyEV8gH36+QD71fIB96vkA+/RwFcu/q4SJJCsT84DoJ0YJaMoed14dGIeEl9tGDeOXhPLj26LRbSrDPFIdymrm4kuZmkc+w0WtrLdycyP3J9KtrdLeJY1HQBpx/+X9zoTvI+IUu4aMSxJIY2iifOX/VZlukkkn11NDIkaSMhCtuOqKWSFw8blSKs7+K7Uc09bLpXYT90/Cak7x+I7HDPHQe51Gp+/n/AMja7K8ezkLgZq3aFRSrLGrruYZ6mAKkEdFWliLS7kaPu3XVivgpqG7ZWnhoeAcr9k03bfiOjAO7m1YnYi5j5694u6mBVipGRG/YYBun5ZEDoysMwRkav7YW1y8flvXRgt58Mm3bzOa7DFr38NDzF7b6LWA3E8cXqemkQIoUbgNGIeEl9tGDeOXhPLj26LYRxtLIsa72OQqwsVs4ss82O86v+Q/y/udCd5HxCl3DkNYniRtiIowC5H6USSSTvOrDMOM7CWUZRipLeKSP4bKOblV7YyWj+qHsnVDNJBIskZyIqwvlu4s8snHaGufun4TUnePxHY4Z46D3Oo1P38/+Rthht81rKEdj8E0rBhmNpivgpqG7ZWnhoeAcr9k03bfiOjAO7m14vh7yETwpxjYYBun0YtZfiIS6rm6aFJVlYHIqcxVndR3UIdT7jVJIkalnOQFXs5ubmSTy3L7aMFtfhQGVh1n04h4WX20YN45eE0OTHt0WsAsQACTWF2AgQSSKPiHX/wAg/lvc6E7yPiFLuHJil+tvEY0b9q1Ek9LEk+ZOrDcMaciWUZJSqAAAMgKyqaFJo2jdQQavrGSzkPRnGey2qKWSFw6MQQas7uO6jDKenzGqfun4TUnePxHY4Z46D3Oo1P38/wDkbY4TiJDC3lPCaB2eK+ClobK08NDwDlfsmm7b8R0YB3c3INLVimH/AACZ07DN0j014Bun0EZ1iVobW4P0OSRotL2azL/Cy63rXzy8+mOvnl56R188vPSOvnl56R188vPSOrrE7i6iMT80L/TRYWv4u4VM+qOlqRQihQOgDIacQ8JL7aMG8cvCaHJj3/i14NY/zMg4RWWvHx4fQneR8QpeyKdwilj5Cp5TPNJKd7HVhuGmZhLL3fkPWgABkNE0KTRsjjMEVe2Mlo/qn8J1YTcGC7QeT9B1T90/Cak7x+I7HDPHQe51Gp+/n/yNssKxJZESCVuuNni3gpdnaeGh4BytuNP234jowHu5thJGsqFHUEGsQszaTHo6jdnVgA6kx04lam5tmUdsdK0QykqwyIORG1wqyNtESw676sQ8JL7aMG8cvAeXHkPMibyz1YXh7zSpNIP2QoAAbDH90GiPpkj4hS9kViTFbOXh1YdhhnIklXJB5HzpVCgADIDVNCk8ZR1zU1f2UlpJuJjJ6p0qSroRvDCoGJhjJ81Gmfun4TUnePxHY4Z4+D3Oo7qn7+f/ACNslJVgynIqcwaw2/F5Gcxk67xssW8FLs7Tw0PAOU1fQNBcyrkcixI0YRb/AAbVCd7jPY3FvHcRlHGYNXlpJaSFWGa+TacHgMVoCd7ktqxm2+DcfFUdWTaYZaG5nBPYQgmgNUqB0ZT5ipYzHLIh/hYjlwGLOWWX0XLlxO2/EWrqO0OkacOw43bFpARGKSNUVVUZADIbHFbQ3VvkO0nSNGF2hublSeyhz5LqL48EkfqpogqSCOkHI6MMw0zuJZQRGOkD1oKBuGwmhSZCjrmDV9YyWj+sZ3HRaQme5ij9WpFCKqjyGmfun4TUnePxHY4Z4+D3Oo1cd/P/AJG2cM8kEgkjOTCrS6juog6n3Hodji3gpdnaeGh4Bymr2zS7iKNv/hPpUmDXqHJQHpcLvye5yqywbmNz7jI+i0BkANlLDHKhWRAwq4wNixMDgD6TTYVfg9zn7EUuFX5/8OXuascH+DIJJyGPktZDVdQLPC8ZG8V8nv8A6F/Wvk9/9A/Wvk9/9A/Wvk9/9C/rXye/+hf1r5Pf/QP1r5Pf/QP1r5Pf/QK+T3/0Cvk999A/Wvk9/wDQKw+1NtbIhyD721msSwsXOcsWQl/3TWF6hyNu9QYTdzMAyFE8yaggjgjCRqABovMKguASoCP6imwG5B6sqkUMBufOVKtcGghyaTrtQUKMgMhs73CYbgl06j0cCuvJ0qHAXzBllGXoKggigXmxoFHIaxHCvj5ywAB/MetPYXiHIwPSYdeyEAQMPerPBhGedPk58hQAUADZSRJKpV1BB8jV3gknPLW+WX001heLvgeo8NvZDkICOKsPw5LQFic5DvOqfun4TUnePxHY4Z46D3NDSauO/n/yNtLS6e1mEg3fxCo5FkQOpzBGwxbwMuztPDQ8A/J2X7vP3T8JqTvH4jsbWUQ3EUhPQGqNw6hlOYIzB0zypDEzscgBTtz3ZvqYn9drhd9+EkKyE/CakdXUMpBB3HXjcwS05nm52dp4aHgH5ln7p+E1J3j8R2WD3ymMW7kBl7P9Rpxi+WX/AOOhzA7R29hibW/MicZx/wCqjlSVQyMGGmWVIUZ2OQAq/vDeSh8slAyA2dr4aHgH5llUsjKPMVPG0c0iMMiG2QJBBByI3GrTGnjHNnBb+ooYxYkd7TYxYjdITV5i8s/UhJjT9xhnngOcUhWoMdyAE0Z9xQxmxO9yKOL2H3qmxyFe6Rnq4u57ly0jnLyTyGzALEKBmSchUClIY1O8KB+Zr3DILshySrjzFXVlPasQ4zXyYf8AW2tpNdOFRSB5tVnhcNseeSXf80OiuCrKCD5Gr7BhIefbkIfpqa3mgOUkZX/qYoZZmCxoWNWeC5Hn3OR9FpEVFCqoAH5qyFTwRzoUdcwavMFZM3gbMfSaIIJBBBG8H/pQMyAOknyqzwd51DzEoPSoLeK3QJGuQH5vurKG5QhlGfk1XGFXUBYqvPT1H/R22G3Vx0heavq1WmHwWyrkgL/VQH5xyq8wmG4PPXqPV1aTWsnNcZj6hu/f7e1muX5sa5+pq0weCBlkcl3FAAfnV0VwVYAg1fYMD17bIeq1NDLA3NkQqf3uKKWVubHGzH0FWeCkMHuCOCkijjXJFCj0H55nt4p0KSLmKu8GeJS0DFx6UQQSCCCPI/vFnhEs4DyHmIf1q2tYbZOZGv57y5LqwguQc0AbLtVc4XdW/TzeevqtZH90tsOurnIqnNX6jVlh0NqNwZ/qrIfn8irzCIZ2aRCUeri1mtmykHsf3GCCW4cJGp9/IVaYNFF15jz2oAAZD+wbxpIvNdQR6Gr3BQc3t+g/TUkUkTc2RCp/rtUjeRgkalmPkKscGJ610PZajijiUKiBQPIcmVZf2EuLWG5TmSLmKvMIlhzeI89NnZ4RNP1pCUSra0htUCov9i7rDra5HWXJvUVdYbcWxY8wtH5MNdtYXNyeqhVfqNWuGW1uASgZ/qP9jiAau8GhmPPiPMap7eW3kKSLu8/I8sMMk78yNCTVpgscZR5nLMKAAGQ/sjJFHIpV1BBq6wQHw55v9DVvgZzznYEegqKGOJeaiBR/+U3/xAAtEQACAQMCBAQGAwEAAAAAAAABAgADEBEgMQQSMkEUITNREzBCUGBhIkBxcP/aAAgBAgEBPwD/AJHkfhJYCFybKxEDA/guRGf2m50CBz3gOfwIuO0yT8jJG0D+8Bz9+LAQsT8wMRtA4+9swELk/wBAOVgYH7uTiGp7f0x5QOe8BB+6M2BCSd9PKxnI0II+TyMYVI0g4iNn7nU0oM3IyIy410x3uwwdNPc/c6nbTT0EAiEYOpOm776ae5uXUbmBgdjqLBdzA6nY6CwG5nOvvOdfec6+85195zr7jS1VF3iur7G2cQOp76+dfe5ZRuYGU7HUSBOdPcaH7aaex0sMiYx5HSnTd99NPc2ruVXyhJMViplKpzjTVYlzASDkSm3MoNicAmVH5mmZmZMyZmUKmf4m5OAYxJJlFiHFuIc83KICRKDcyaatUk4BmTKVUgiE4BMZiSYGIPlKVUOP3oZgoJMqVS5mTOHckEG9Ttpp7amXOlOm776ae5txOwujlTFYMMjQ/UbUfTFuIfA5RZVLbT4L+0+C/tPgv7QgiI3KwMRgyg2bpP8AkO5lL1FtX67cN0HRWq4/iLr1CYyuI6FSbAkEESlVDj92ZgoyZUqFz+r0E5Vyb1O2mntdjgjQ699CdN33009zbidhopVCh/UBBF36jaj6YjMFBMdixJtQTlXJ3OivT+q1Cpg4Nm6T/kO5lL1FtX67cN0m9aryDA3hOTdeoQSpTDj9xlKnBspKnIiV1K+cq1S5vSo9zoqaaexvU7RGxodced06bvvpp7m3E7C1AAvgyrTKH9Wo1eU4O136jaj6YnEP9NqKFm/Q0sAwwZ4ZfcwcOvuYPIQjIInhl9zFoKpBtX67cN0m1SoEH7jEkkmAZnwwlI+9l6hBapTDj9xlKnB00qJyGOmppp7G9TtZG7aHXBsnTd99NPc24nYWodcZQy4MqIUbFqNXZTZ+o2pekP8AI+SxzagoCAxiACY3EN2niKk8RUniKk8RUniKko1HffaHyBMPEPEruzAWr9duG6THcKMx3LEmbyhSx/Iyt0Gy9QgvWRSpJ0UFVm89VTtpp7G9TtdG7G5GRGXlMTpF33009zbidhbh/UtUphxGUqcGAyjUDDBj9RtR9MTiEweYW4d8HlMqLlDCDpAyZTXkUCN0n/IdzKXWtuI9S1AhUJMqVC5tQpZ8zat0Gy9QgszBRkyrULnQpKnIlKrzjHfTU7aae16nbQjZuRkRRgXffTT3NuJ2FqHXetS5xkbwjEVipyITk5tR9MR15lIjLykiA4OZTcOohpqdxPhJ7T4Ke0rhB5AWoU8nmNm6T/kO5lLrW1frtzHGLUaZY57QDFq3QbL1CCMwUZMqVC5/V0oEjJjKVODZWKnIlKqH8jvoftpp7G9TtoHkYGyNT76ae5txOwtw/qaK9L6hoo+mtuIp/ULUagQ+c8RTniKcPEJiMxYkxVLECIvKoFm6TDuZS61txHqXp0y7YiqFAF63QbL1CDaVahc/q9Gl3a1SmHEZSpspKnIlJ+dc3qaaexvU7aQcGA50vuNNPc24kHANuHB59BlaljzF6QIQCxAIIjrysRq4dPqN22MbcyiMutuIUhs2RCxlNAi6KgJQiyKSwh6TDubUaOzHRUphxGUqcG3DA4N6mmnsb1O2pWwdL7jTT3NiARgw8OkVFXbSY1BDFoopzoekr7zw6Tw6Tw6Tw6Tw6QAAYGh6KscxKaptYqDuJ8BIqgbDU1FGOSIqKuws1FWi0EUzGlkVh5ieHT3MVQowL1NKHF3OTrR8eR0Mctpp7n7m6k7TBGkORC5PyQSJ8QwsTqRSPuhAMKEf1AhMCgfdygMKkf0ApMCgfeymYQR8wAmBB3m334p3HyR5wJ7wAD8BKgwoRqCEwKBMfgjKDCpFgCYEA/CMTkEx/wAI/8QALhEAAgEDAwIEBQUBAQAAAAAAAQIDAAQQESAxEjIhM0JhExRQUXEiMEFSYEBw/9oACAEDAQE/AP8AyP4qa6dQ1/xLyog8TUty7+A8BWpqK4ZOfEVHKknB/wAKzqo1JqW65C0WJOpOwMQdQaiuiPB6V1Yag/4EkCpLpV1C+Jp5Gckk/sI7IdQaiugfB6BB4+vSXCJ7mpZ3c8+H7kczx1HcI/sfrbyKg8TUtyzeA8BRJP7w8KiuWTwPiKjlSTg/V2YKNSakuv4SixJ1J/4gxB1BqK6/h6VlYag/VJ5fhL708jOfE7UtpG8dK+Ukp43TuH7AUsQBQtZDT28iDXakjIdQagm+KPcfU7z07bWMMSxyyhhoRU8PQdRxvtIx09eCAauECPts+W+p3np22fYdjqGBBqaIxtutvKGbzuG2z5bJdBywoOrcHczKvJoSI3DDYWVeTXWn3Fda/cV1p9xXWv3Fda/cUCDseZEOhNJIr8HBIFB0P8jeZEB7hQIOGdV5NK6twd2oFfFj106hsvPTts+w7ZYxIpBp0KMQdtt5Qzedw22fLYuJCieHJrUmldkIINQyiRffbM5Z2oEg+FRN1RqcE6AmpXLsTs1NamraXUdJyx0UmmJZiTUDESLi5c9egoE61buXTYannLHRT4VqaglZWA18KZtFJp2LEkmlZlPgahmDjQ87HcKCTUszOfDjFq5ZSDm89O2z7DumhEi+9EFTodlt5Qzedw22fLYu/TmNyjAikcOARsk72xb+UuLmTQdIwqM/Ar4Ev9a+BL/WvgS/1ogilYqwNI4dQRh+xvxR5qHzFxceYcWnYdlxMO1cp3CtNV09qdCjEYBKnUVBMHGh5w7BQSallLnNshVNTyc3np22fYczSfDKmlYMARxm4h6h1LzstvKGbzuG2z5bF36dkMpjb2pWDAEZk72/OLfylp2CqTTsWYnFvH0LqeTsuYtD1DFvL0nQ8HD9jfijzUXmL+cXHmHFp2HM8wQaDmuTle4UOBUsQkHvTKVJBGASCDUdypX9XNSylz7ZggJ/U2y89O2z7Dm87Vq3n6D0txQ8c3MGn6lzbeUM3ncNtny2Lv04twC+hqeIxnUcYgm6T0njMne35xb+UtXUnpGIIy76/wAChsZQwINfKJ9zQtVH8ml8ABRGoIr5RPuaW2VWB1OLnzDi07DiWUIp+9MxYkmgCx0r4Xw4WJ5OF7hQ4GJoRIPenQodDtgg10Ztt56dtn2HN52ri3n4Q5I1FTwlDqOMW3lDN53DbZ8ti79OLbzBToHUg06FGIOLebX9DYk72xD5A/FPqWOuLdQqUzBQSae6bU9NfNS181JXzMtfNS181LUEkjnx4pjopNG6kqO5dnAOLjzDi07DUjhFJNO5dtTi3h6R1Gp/KOF7hQ4GZ1QrqedluiM36t156dtn2HN52rgHSrebrHSecsoYEGpojG3tVt5Qzedw22fLYu/Ti28wYljEi0ylSQaBqCXrXQ8gVJ3t+cW/lLVzF0t1Dg4tZND0mpVLRkUQQdoGpAqJAiAU/Y34o81D5i4uPMOLZgsbE1NL8RsQQdRDHjE/lthe4UOBhmCgk1LKXOwEioZw+gPO289O2z7Dm87VyrFSCKglEi++ZIxIuhqFSidJzedw22fLYu/Ti28wZnh6x1DmiKVip1FE6nXFv5S06B1Ip16WIoEjQionEiA00SMdSK+BH/WvgR/1q4CLoFGLWPU9Rw/Y34o81D5i4ufMOOohenEEXWdf4oAAaDE/lthe4UOBTOFBJqWUucpbMy6mmQqSDhWKnUVDMGGjc7Lz07bPsObztXZG7IwIqOQSKCN153DbZ8ti79OLbzBsuIfWuy38pcXUfrGIJfhnx4r5qOvmo6N0mh0pm6iTSqWYCkXoUDD9jfijzUPmLi48w5jjLsBSKFUAZn8psL3CtdBU8pdvYZgg10ZsSxCQe9MpUkHAJBBqGTrTN56dtn2HN52rthlMbClYMARtvO4bbPlsXQJUHFsCZNds8JXxHGYQVjUYYBgQakUoxG61j9Ryw1UimBBNQAmRcXSkPrhELnQVFGEXTZMvVGwoio1LOAKYaoR7UQQTiCDXRm2TQiQe9MpViDi1B0JzeenbZ9hzedq7oJih0PFA7LzuG2z5bBAYaGjaprSIqDQbSAaa2jY0tuinXY8KSEE18rHXysdfKx18rHXysdKAoA2Pbo514qOJY+MMisNCK+XjpUVeBuaCNjqRSRInAw9ujnWktkWhteJH5FfKJ9zSqFAAzeenbayAEqc3Thm0H8b4LjT9LZJ0q4kDudNtny31O4hMg8ORTKynQjYDpS3MijSnuZGFE6/sJO6cGvm5PsKeeR+TtVSx0Aq3hMY1PJ+qPGrjQipbVl7fEUQR/wAQGtRWzN4t4CkjVBoB9XkgSSpbd09x/wAEcDv+KjgRPrRGtS2yt4r4GnjdOR+4kbudAKitVXQt4mgNPrrKGGhFS2v8pTKVOhH7CqWOgFR2vBalUKNAP8C8avyKktmXxXxFEabYrZn0LeApIkQaAf4WSBH9jUkDp7jEcDvUduie5/xBANfLx666UAB/4R//2Q==;" parent="kthAWzpPzz_Ot7cgUqlj-21" vertex="1">
          <mxGeometry x="26.25" y="24.357142857142858" width="128.62142857142857" height="53.42857142857143" as="geometry" />
        </mxCell>
        <mxCell id="kthAWzpPzz_Ot7cgUqlj-24" value="&lt;span style=&quot;color: rgba(0, 0, 0, 0); font-family: monospace; font-size: 0px; text-align: start;&quot;&gt;%3CmxGraphModel%3E%3Croot%3E%3CmxCell%20id%3D%220%22%2F%3E%3CmxCell%20id%3D%221%22%20parent%3D%220%22%2F%3E%3CmxCell%20id%3D%222%22%20value%3D%22%22%20style%3D%22shape%3Dcylinder3%3BwhiteSpace%3Dwrap%3Bhtml%3D1%3BboundedLbl%3D1%3BbackgroundOutline%3D1%3Bsize%3D15%3B%22%20vertex%3D%221%22%20parent%3D%221%22%3E%3CmxGeometry%20x%3D%22400%22%20y%3D%222440%22%20width%3D%2260%22%20height%3D%22115%22%20as%3D%22geometry%22%2F%3E%3C%2FmxCell%3E%3C%2Froot%3E%3C%2FmxGraphModel%3E&lt;/span&gt;&lt;span style=&quot;color: rgba(0, 0, 0, 0); font-family: monospace; font-size: 0px; text-align: start;&quot;&gt;%3CmxGraphModel%3E%3Croot%3E%3CmxCell%20id%3D%220%22%2F%3E%3CmxCell%20id%3D%221%22%20parent%3D%220%22%2F%3E%3CmxCell%20id%3D%222%22%20value%3D%22%22%20style%3D%22shape%3Dcylinder3%3BwhiteSpace%3Dwrap%3Bhtml%3D1%3BboundedLbl%3D1%3BbackgroundOutline%3D1%3Bsize%3D15%3B%22%20vertex%3D%221%22%20parent%3D%221%22%3E%3CmxGeometry%20x%3D%22400%22%20y%3D%222440%22%20width%3D%2260%22%20height%3D%22115%22%20as%3D%22geometry%22%2F%3E%3C%2FmxCell%3E%3C%2Froot%3E%3C%2FmxGraphModel%3E&lt;/span&gt;" style="sketch=0;points=[[0,0,0],[0.25,0,0],[0.5,0,0],[0.75,0,0],[1,0,0],[0,1,0],[0.25,1,0],[0.5,1,0],[0.75,1,0],[1,1,0],[0,0.25,0],[0,0.5,0],[0,0.75,0],[1,0.25,0],[1,0.5,0],[1,0.75,0]];outlineConnect=0;fontColor=#232F3E;fillColor=#ED7100;strokeColor=#ffffff;dashed=0;verticalLabelPosition=bottom;verticalAlign=top;align=center;html=1;fontSize=12;fontStyle=0;aspect=fixed;shape=mxgraph.aws4.resourceIcon;resIcon=mxgraph.aws4.ec2;" parent="kthAWzpPzz_Ot7cgUqlj-21" vertex="1">
          <mxGeometry x="192.5" y="20.428571428571427" width="61.285714285714285" height="61.285714285714285" as="geometry" />
        </mxCell>
        <mxCell id="kthAWzpPzz_Ot7cgUqlj-25" value="" style="group" parent="1" vertex="1" connectable="0">
          <mxGeometry x="-1770" y="1820" width="210" height="110" as="geometry" />
        </mxCell>
        <mxCell id="kthAWzpPzz_Ot7cgUqlj-26" value="" style="rounded=1;whiteSpace=wrap;html=1;container=0;" parent="kthAWzpPzz_Ot7cgUqlj-25" vertex="1">
          <mxGeometry width="210" height="110" as="geometry" />
        </mxCell>
        <mxCell id="kthAWzpPzz_Ot7cgUqlj-27" value="&lt;span style=&quot;color: rgba(0, 0, 0, 0); font-family: monospace; font-size: 0px; text-align: start;&quot;&gt;%3CmxGraphModel%3E%3Croot%3E%3CmxCell%20id%3D%220%22%2F%3E%3CmxCell%20id%3D%221%22%20parent%3D%220%22%2F%3E%3CmxCell%20id%3D%222%22%20value%3D%22%22%20style%3D%22shape%3Dcylinder3%3BwhiteSpace%3Dwrap%3Bhtml%3D1%3BboundedLbl%3D1%3BbackgroundOutline%3D1%3Bsize%3D15%3B%22%20vertex%3D%221%22%20parent%3D%221%22%3E%3CmxGeometry%20x%3D%22400%22%20y%3D%222440%22%20width%3D%2260%22%20height%3D%22115%22%20as%3D%22geometry%22%2F%3E%3C%2FmxCell%3E%3C%2Froot%3E%3C%2FmxGraphModel%3E&lt;/span&gt;&lt;span style=&quot;color: rgba(0, 0, 0, 0); font-family: monospace; font-size: 0px; text-align: start;&quot;&gt;%3CmxGraphModel%3E%3Croot%3E%3CmxCell%20id%3D%220%22%2F%3E%3CmxCell%20id%3D%221%22%20parent%3D%220%22%2F%3E%3CmxCell%20id%3D%222%22%20value%3D%22%22%20style%3D%22shape%3Dcylinder3%3BwhiteSpace%3Dwrap%3Bhtml%3D1%3BboundedLbl%3D1%3BbackgroundOutline%3D1%3Bsize%3D15%3B%22%20vertex%3D%221%22%20parent%3D%221%22%3E%3CmxGeometry%20x%3D%22400%22%20y%3D%222440%22%20width%3D%2260%22%20height%3D%22115%22%20as%3D%22geometry%22%2F%3E%3C%2FmxCell%3E%3C%2Froot%3E%3C%2FmxGraphModel%3E&lt;/span&gt;" style="sketch=0;points=[[0,0,0],[0.25,0,0],[0.5,0,0],[0.75,0,0],[1,0,0],[0,1,0],[0.25,1,0],[0.5,1,0],[0.75,1,0],[1,1,0],[0,0.25,0],[0,0.5,0],[0,0.75,0],[1,0.25,0],[1,0.5,0],[1,0.75,0]];outlineConnect=0;fontColor=#232F3E;fillColor=#ED7100;strokeColor=#ffffff;dashed=0;verticalLabelPosition=bottom;verticalAlign=top;align=center;html=1;fontSize=12;fontStyle=0;aspect=fixed;shape=mxgraph.aws4.resourceIcon;resIcon=mxgraph.aws4.ec2;container=0;" parent="kthAWzpPzz_Ot7cgUqlj-25" vertex="1">
          <mxGeometry x="112.5" y="20.42857142857156" width="61.285714285714285" height="61.285714285714285" as="geometry" />
        </mxCell>
        <mxCell id="kthAWzpPzz_Ot7cgUqlj-28" value="" style="dashed=0;outlineConnect=0;html=1;align=center;labelPosition=center;verticalLabelPosition=bottom;verticalAlign=top;shape=mxgraph.weblogos.apache" parent="kthAWzpPzz_Ot7cgUqlj-25" vertex="1">
          <mxGeometry x="30" y="12.399999999999636" width="42.6" height="85.2" as="geometry" />
        </mxCell>
        <mxCell id="kthAWzpPzz_Ot7cgUqlj-33" value="" style="group" parent="1" vertex="1" connectable="0">
          <mxGeometry x="-1180" y="1500" width="330" height="200" as="geometry" />
        </mxCell>
        <mxCell id="kthAWzpPzz_Ot7cgUqlj-34" value="" style="rounded=1;whiteSpace=wrap;html=1;" parent="kthAWzpPzz_Ot7cgUqlj-33" vertex="1">
          <mxGeometry x="10" width="320" height="200" as="geometry" />
        </mxCell>
        <mxCell id="kthAWzpPzz_Ot7cgUqlj-35" value="&lt;font style=&quot;font-size: 18px;&quot;&gt;&lt;b&gt;Target group&lt;/b&gt;&lt;/font&gt;" style="text;html=1;align=center;verticalAlign=middle;whiteSpace=wrap;rounded=0;" parent="kthAWzpPzz_Ot7cgUqlj-33" vertex="1">
          <mxGeometry width="160" height="50" as="geometry" />
        </mxCell>
        <mxCell id="vA6beivC7NnF0CchnOPw-1" value="" style="group" parent="1" vertex="1" connectable="0">
          <mxGeometry x="490" y="1170" width="270" height="100" as="geometry" />
        </mxCell>
        <mxCell id="kthAWzpPzz_Ot7cgUqlj-48" value="&lt;span style=&quot;font-size: 18px;&quot;&gt;&lt;b&gt;&amp;nbsp;Certificate Manager&lt;/b&gt;&lt;/span&gt;" style="rounded=1;whiteSpace=wrap;html=1;align=left;container=0;" parent="vA6beivC7NnF0CchnOPw-1" vertex="1">
          <mxGeometry width="270" height="100" as="geometry" />
        </mxCell>
        <mxCell id="kthAWzpPzz_Ot7cgUqlj-46" value="" style="outlineConnect=0;dashed=0;verticalLabelPosition=bottom;verticalAlign=top;align=center;html=1;shape=mxgraph.aws3.certificate_manager;fillColor=#759C3E;gradientColor=none;container=0;" parent="vA6beivC7NnF0CchnOPw-1" vertex="1">
          <mxGeometry x="190.0015625000001" y="19.25" width="64.546875" height="61.5" as="geometry" />
        </mxCell>
        <mxCell id="4bWy2ilgJK2MeaBhGG6L-4" value="&lt;span style=&quot;color: rgba(0, 0, 0, 0); font-family: monospace; font-size: 0px; text-align: start; text-wrap-mode: nowrap;&quot;&gt;%3CmxGraphModel%3E%3Croot%3E%3CmxCell%20id%3D%220%22%2F%3E%3CmxCell%20id%3D%221%22%20parent%3D%220%22%2F%3E%3CmxCell%20id%3D%222%22%20value%3D%22%26lt%3Bfont%20style%3D%26quot%3Bfont-size%3A%2018px%3B%26quot%3B%26gt%3B%26lt%3Bb%26gt%3BAZ%20us-east-1a%26lt%3B%2Fb%26gt%3B%26lt%3B%2Ffont%26gt%3B%22%20style%3D%22text%3Bhtml%3D1%3Balign%3Dcenter%3BverticalAlign%3Dmiddle%3BwhiteSpace%3Dwrap%3Brounded%3D0%3Bmovable%3D1%3Bresizable%3D1%3Brotatable%3D1%3Bdeletable%3D1%3Beditable%3D1%3Blocked%3D0%3Bconnectable%3D1%3B%22%20vertex%3D%221%22%20parent%3D%221%22%3E%3CmxGeometry%20x%3D%22-389.99666666666667%22%20y%3D%22-50%22%20width%3D%22160%22%20height%3D%2260%22%20as%3D%22geometry%22%2F%3E%3C%2FmxCell%3E%3C%2Froot%3E%3C%2FmxGraphModel%3E&lt;/span&gt;" style="rounded=1;whiteSpace=wrap;html=1;container=0;" parent="1" vertex="1">
          <mxGeometry x="159.64" y="1470" width="1080.36" height="1360" as="geometry" />
        </mxCell>
        <mxCell id="4bWy2ilgJK2MeaBhGG6L-5" value="&lt;b style=&quot;forced-color-adjust: none; color: rgb(0, 0, 0); font-family: Helvetica; font-size: 18px; font-style: normal; font-variant-ligatures: normal; font-variant-caps: normal; letter-spacing: normal; orphans: 2; text-align: center; text-indent: 0px; text-transform: none; widows: 2; word-spacing: 0px; -webkit-text-stroke-width: 0px; white-space: normal; background-color: rgb(236, 236, 236); text-decoration-thickness: initial; text-decoration-style: initial; text-decoration-color: initial;&quot;&gt;Public subnet 10.1.0.0/24&lt;/b&gt;" style="text;html=1;align=center;verticalAlign=middle;whiteSpace=wrap;rounded=0;movable=1;resizable=1;rotatable=1;deletable=1;editable=1;locked=0;connectable=1;container=0;" parent="1" vertex="1">
          <mxGeometry x="119.99879191044593" y="1479.79797979798" width="466.940522566581" height="75.24848484848484" as="geometry" />
        </mxCell>
        <mxCell id="vA6beivC7NnF0CchnOPw-2" style="edgeStyle=orthogonalEdgeStyle;rounded=0;orthogonalLoop=1;jettySize=auto;html=1;" parent="1" source="4bWy2ilgJK2MeaBhGG6L-51" target="kthAWzpPzz_Ot7cgUqlj-18" edge="1">
          <mxGeometry relative="1" as="geometry" />
        </mxCell>
        <mxCell id="vA6beivC7NnF0CchnOPw-3" style="edgeStyle=orthogonalEdgeStyle;rounded=0;orthogonalLoop=1;jettySize=auto;html=1;" parent="1" source="4bWy2ilgJK2MeaBhGG6L-51" target="kthAWzpPzz_Ot7cgUqlj-31" edge="1">
          <mxGeometry relative="1" as="geometry" />
        </mxCell>
        <mxCell id="vA6beivC7NnF0CchnOPw-29" style="edgeStyle=orthogonalEdgeStyle;rounded=0;orthogonalLoop=1;jettySize=auto;html=1;" parent="1" source="4bWy2ilgJK2MeaBhGG6L-51" target="kthAWzpPzz_Ot7cgUqlj-48" edge="1">
          <mxGeometry relative="1" as="geometry">
            <Array as="points">
              <mxPoint x="401" y="1590" />
              <mxPoint x="625" y="1590" />
            </Array>
          </mxGeometry>
        </mxCell>
        <mxCell id="4bWy2ilgJK2MeaBhGG6L-51" value="&lt;font style=&quot;font-size: 18px;&quot;&gt;&lt;b style=&quot;&quot;&gt;&amp;nbsp; Application load balancer&lt;/b&gt;&lt;/font&gt;" style="rounded=1;whiteSpace=wrap;html=1;align=left;container=0;" parent="1" vertex="1">
          <mxGeometry x="241" y="1740" width="320" height="100" as="geometry" />
        </mxCell>
        <mxCell id="4bWy2ilgJK2MeaBhGG6L-49" value="" style="points=[];aspect=fixed;html=1;align=center;shadow=0;dashed=0;fillColor=#FF6A00;strokeColor=none;shape=mxgraph.alibaba_cloud.alb_application_load_balancer_01;container=0;" parent="1" vertex="1">
          <mxGeometry x="409.99666666666667" y="1754.54" width="83.63055555555555" height="70.92777777777778" as="geometry" />
        </mxCell>
        <mxCell id="kthAWzpPzz_Ot7cgUqlj-18" value="" style="rounded=1;whiteSpace=wrap;html=1;container=0;" parent="1" vertex="1">
          <mxGeometry x="680" y="1550" width="320" height="200" as="geometry" />
        </mxCell>
        <mxCell id="kthAWzpPzz_Ot7cgUqlj-19" value="&lt;font style=&quot;font-size: 18px;&quot;&gt;&lt;b&gt;Target group&lt;/b&gt;&lt;/font&gt;" style="text;html=1;align=center;verticalAlign=middle;whiteSpace=wrap;rounded=0;container=0;" parent="1" vertex="1">
          <mxGeometry x="670" y="1550" width="160" height="50" as="geometry" />
        </mxCell>
        <mxCell id="kthAWzpPzz_Ot7cgUqlj-37" value="" style="rounded=1;whiteSpace=wrap;html=1;container=0;" parent="1" vertex="1">
          <mxGeometry x="700" y="1610" width="280" height="110" as="geometry" />
        </mxCell>
        <mxCell id="kthAWzpPzz_Ot7cgUqlj-38" value="" style="shape=image;imageAspect=0;aspect=fixed;verticalLabelPosition=bottom;verticalAlign=top;image=data:image/jpeg,/9j/4AAQSkZJRgABAQAAAQABAAD//gAfQ29tcHJlc3NlZCBieSBqcGVnLXJlY29tcHJlc3P/2wCEABISEhITEhQWFhQcHhseHCkmIiImKT4sMCwwLD5eO0U7O0U7XlNlUk1SZVOWdmhodpatkYqRrdK8vNL/+/////8BEhISEhMSFBYWFBweGx4cKSYiIiYpPiwwLDAsPl47RTs7RTteU2VSTVJlU5Z2aGh2lq2RipGt0ry80v/7///////CABEIAfIEsAMBIgACEQEDEQH/xAAyAAEAAgMBAQAAAAAAAAAAAAAAAQYDBAUHAgEBAAMBAQAAAAAAAAAAAAAAAAMEBQIB/9oADAMBAAIQAxAAAAC8AAAAAAAAAAAAAAAAAAAAAAAAAAAAAAAAAAAAAAAAAAAAAAAAAAAAAAAAAAAAAAAAAAAAAAAAAAAAAAAAAAAAAAAAAAAAAAAAAAAAAAAAAAAAAAAAAAAAAAAAAAAAAAAAAAAAAAAAAAAAAAAAAAAAAAAAAAAAAAAAAAEEuZ8cx9ZE9SAAAAAAAAAAAAAAAAAAAAAAAAAAAAAAAAAAAAAAAAAAAAAAAAAAAAAAAAAAAAAAAAAAAAAAAGGucxdqs86IqAcVt+zUqe7Hos1SyS6GcdSgAAAAAAAAAAAAAAAAAAAAAAAAAAAAAAAAAAAAAAAAAAAAAAAAAAAAAAAAAAAAAAAAAAEczzno8Ph6kdH7xyjpwHIAeGTG96sve882u7l9cjrS3pHvQAAAAAAAAAAAAAAAAAAAAAAAAAAAAAAAAAAAAAAAAAAAAAAAAAAAAAAAAAAAAAAAxPMulw+JHV6XKIqAIwAAAAAHR5x3eN/zrtS37WwZ+7Ye+gAAAAAAAAAAAAAAAAAAAAAAAAAAAAAAAAAAAAAAAAAAAAAAAAAAAAAAAAAACCfnm1viDt1vEiz4THkAAAAAAAAAAGSxVmfZvQ/uiWSXQ66J7sAAAAAAAAAAAAAAAAAAAAAAAAAAAAAAAAAAAAAAAAAAAAAAAAAAAAAAAAAGOucx9ytcz4ioQOaswPAAAAAAAAAAAEwJge9Oz0X76s+iKtY5b+YdSgAAAAAAAAAAAAAAAAAAAAAAAAAAAAAAAAAAAAAAAAAAAAAAAAAAAADnec7/ABuJzo6WfAR0kwcgAAAAAAAAAAAAAAAMuI6tPb873u7l5cnqy3pHvQAAAAAAAAAAAAAAAAAAAAAAAAAAAAAAAAAAAAAAAAAAAAAAAAADWzUXmDe5PyhzA84B4AD06nX9nqi4Yfe6q6/I8gDyMAAAAAAfbr4WLe6sU9a+F5zojyuAAA63JeyXzb88v0ullHdgAAAAAAAAAAAAAAAAAAAAAAAAAAAAAAAAAAAAAAAAAAAAAAAADFQL/QIqHwIqIe+AALFxL53d+5JtECNDoPOaBr3mlw5mIc1gAAAAJufAuMmikluseQ8pHPttSgyg5rgAAL/QL/Je2BLoAAAAAAAAAAAAAAAAAAAAAAAAAAAAAAAAAAAAAAAAAAAAAAAAAYvP/QPP4qHyIqIe+AAb15o94k0wltgAOR148587iyVuDJgeQgAAB47tqqtqn1g7sAc2k3ekQ50jikAAAv8AQL/Je2BLoAGvy+eO45fSe/SJ66AAAAI53nPScLqc+bI77AAMet5zutJ55utIbrSG60xuNM93GLL76HvoABo8COK2qzZPevod9jD55mczZ852h12AAAAIJaeDnjpsf371I99Pjkc8dpyOo9+x10AAAAMXnmVxMvPHWRPcgAGLz/0Dz+Oh8iKiDwADevNGvMumElsAACKtavjmPzyOjzoMgHAAAeO7aqrap9YO7AHOpF3pMOcHFIAABf6Bf5L2wJdBw+359BXx/EqOZG7pver9s0e7X9P7EswAAgrVd3dLOyn38RHFet+u2LR1gkkGj55weH9/GdkwOIw8EiEiJHvatvnN0uXemLV0B8/Wp55SteJzMZZK31e5bmidHV1KNYqzSzwr1LT36Je7+oE04AA+XmKnfXMpUArVM1upe1PYv0To3tGqaMTmZEbWs8Xne8/uV/R3xNYAAQ4vPH3U8ajmwlDD2rd5z6Bd0cws2gMXn/oHn8VD5EVEPfAAN680a8y6YSWwAAAMNIvunxBRGTHDlA5AA7tqqtqm1g7sAc6k3akw5wcUgAAF/oF/kvbAl0Pnzr0XzqrSgUqKJEdvipO/Rvqu2HQ1ZHfYCJjxQtXa1czHDjiyWSt2TS1Qlm+adY6PVphSoDpddc13HcnDjujhu4OG+vmOFu6Trr0TJX7BpawddtLd0ueKHMTl47q8rq9yXMaevWa5Y65n5ciGvt32hX27ohZtgCBVdqsVKQVKIh5MxPvfoutszp6/nDrcnOyQ44ZMb3287/ntyv6PQE1lDi88Km+aGbMShgiUe+579XrJe0pFiyBi8/8AQPP46HyIqIPAAN680e8S6YSWwI5nToXEF+c7o9Sh70Byqf6LwIqlXTEeaDwPHdtNWtU+sHdgDnUm7UmHODikAAAv9Av8l7YEuh8edei+dVKQVKIAeJuFOyzTehtHe0NQPfUTHihau1q5mPEnPFkslbsmjqonj9ycDnGbkhxxnvvH7ehpyJ7AAFYr3olEpUNYVqeS+ef9mxat6JvaLS3dLnihzE5eQ6nL6nfd0Gnr1quWOuZ+WENfbvtCvt3RCzbAcnYpMFb4goZoAeExPXXov18/WpsYKTfMEcXn7e0aGYHHLLide3jf8+7V2/u1SIrVQihAdX7tlq5P3E27we+gYvP/AEDz+Kh8iOiDwADevNHvEukElwB596D59FSm70Ld5hvL4+59IHqJFU4nodOhocwR0AO7aqrap9YO7AHOpN2pMOcHFIAABf6Bf5L2wJdD4879E87q0vmSnRdzh2aWev4bnTSBFBtXfz7pWbV2fH3d0ETHntC1drVzMcOeLJZK3ZNHV+aFYqpDWiSnTb2jcZp+p9xOjqAAAOV1XPNBX1BWoS+jR3ixanU2xQl8V6tD6NrddSJ7NarljrmflhBX277Qr7e0Qs22vkpcUOvrmflj6M3U7nJt3K6KVJ9fM9dei/Xz9amwHvuCl3rBFD5+39DPzA55D0HgPUdlbLVyfpNy+AABi8/9A8/iofIioh74ABvXmjXmXTCS2A8+9B8+ipYRHnda3+dWDu/ZxNfAYcx5QtW90mDMxDmr3bTVrVNrB3YA51Ju1JizgjpAAAL/AEC/yXtgS6Hx536J53VpQKdFZqzZprFg4XeXdDzmO7ws/KCPjuWrzm0Xb1ggs3aFq7WrmY4c8WTvcHs6GnStbJjo58jjjpXXg97R0xz5Z8vOrGOnQtKrOOLSqwtKrPVpmqC1zU5LXu0m9zWdrFm0p7GiqKnQt+ek9Xrq6Im5frVcsdcz8tEoa+3faFfbui+ZrU0+tx4Z2WHMf1bNWx3NBWrNWZZq6M3KfXz9ddeifXz9amwHvoGCl3qvwVqvJQzQ8AOzx7nYsdH7+fq/pgAAAYvP/QPP46HyIqIPAAN680a8y6YSWwHn3oPn0VLCI85MS9tfa87ucun0hJaAczpvOfOvm01eDJ7lqq1pl0A7sAc6k3akw5wcUgAAF/oF/kvbAl0Pjzr0XzurShE06KzVmzT2LDJf0/imXbBHF5829TOyn18vPLl1PPbvf0qfp7mnSoSOY7JY65Y9HWrFe9EoFerimJrVNi+ed2SzcsddsXPs26Q+vnOyQ85RJ7BJCXgZOnbtGDPo606W7p9d0KYnLxnU5fU7kucxOnr1quWOuZ+WIgr7l8odqu39epffxXrhFA6+vdLVz7mV3QVqy1mKGujNykx9ddeifXz9amwHvqHF54VIoZpCGGUSAMmOOvbzv+eXO9o9FEz2QAAMXn/oHn8VD5EVEPfAAN+8Ua8y6YSWwHn3oPn0VLCI84BlxHV92qJd5tXIO5wFXtHzzHV7Vyes8DqUDnUm7UmHODikAAAv9Av8l7YEuh8ed+i+dVaMCnSWas2aaxYZidDTA0aT6Jya9ampijmtvUe+7GueAeWSx1yyaOpHAsGPqTzqdzTzclmwnnoGerWnR1dTlWF77W1kec1tZHit8G1U+tTCtWWThX61c+xdvtLd0ueKHMTl47qcvqdyXOTT161XLHXM/LRKCDO1566iTzlsYrrNPn2S/ph76rVlrUUNcGdlPr5+vevRPr5+tTYQ4vnMVMoZsJQwxMT74ydS0WLXn7e0YYA45ZMbr279Dz25X9HoiayABi8/9A8/jofIiog8AA3rzRrzLphJbAefeg+fRUsIjzgAHT5hJ6L9Vezz60jqQCJAADnUm7UmHODikAAAv9Av8l7YEuh8ed+ied1KUCpRWas2aaxYhoaYAFcrXo1TqUuKKdEHge+2SyVuyaOqEs3Hp/o9IqUeeKlKb3Q9uae+Kgs27fNPFv8Aip6/nmHVKVBDdeWDt/H3p7Ejrpp7mlzxQycvHdTl9TuS6DT161XLFXc/LCCABMWOWTc7MToaoddAK1Za1FDXBnZT6+fr3r0SYjU2OVT8uLPzETEMAn3x2Ztlq7H1K5fwUy84oofPW9o0MwOOX38Ovb3u0i7aGpIlmAxef+gefxUPkR0QeAAb15o15l0wktgPPvQfPoqWER5wAAC01b69n9Fcvpz6sj3oAADnUm7UmHODikAAAv8AQL/Je2BLofPnXo1DrU9QilQmzVi5z2erJf0gAGLK88o2hf6VSztUVqoj32zWPkdbS1pEkrndGOefOY7HGzsmUOI5QJQeygSgTceBdbl0LV6QNPcx88+dTkx5mO6nL73clpmJ0tWuVq7UmjnBXrDqdd5Ld85NDTCSUABW7JyuIqYMzJfXz0eu7ro7+vpavn8zGZjiPDtRbrV2PsuXgAMFNvGKKHz1v8+hmSOOZ9Ao19u3/sWrgGLz/wBA8/iofIjog8AA3rzRrzLpBJcAefegefxUsIjzgAAAM91om11avjHkn0wegAc2lXWlQ5wcUgAAF/oF/kvbAl0I0t555S8V5Q1q5YpSzh12AAAw5nnlZ513RQUjr2AQlNYAA1apdUUVKXVxHSl1FKXUUpdRSl1HP6BPOHvQAHDr19QwUq3Z3XQSSxyus55qS2o4uJ2PtJIHXYAAAHG5VuRQ1iwZ3XSJdycHgX2Ia9F7Vgk+PsmsAAAAYq5aHEdDm9ooeV1SewHvQGLz/wBA8/jofIiog8AA2L553aO73fRM2gBhoHc4MOaHFMAAAADp3Hzvr93bgxZZtAHoxPOTU97Rr5QeVwAAF/oF/kvbAl0AAAAAAAAAAAAAAAAAAAAAAAAAAAAAAAAAAAAAAAAAAAAAAAAAMdB9C5nFeltvUhzAcAAJg97nWpruxcuLx3gOa4PAAAAAAM3crr2a4/dLdS2mv6zmMPIAAABtOtb0Dn9WbSkd2gAAAAAAAAAAAAAAAAAAAAAAAAAAAAAAAAAAAAAAAAAAAAAAAAAPjhWB5x5/g9Ar0VDgJjioDwAAAAAAAAAAAAAAAAHrL1bL3a4lg+0t8PZAAAAAAAAAAAAAAAAAAAAAAAAAAAAAAAAAAAAAAAAAAAAAAAAAAAAANGsXWOYfOVxrEWfqjmAHgAAAAAAAAAAAABsWb2xwLRvzNfiTqcAAAAAAAAAAAAAAAAAAAAAAAAAAAAAAAAAAAAAAAAAAAAAAAAAAAAAAAB8fZ5XOB6DgjrUB3OJHnwPIwAAAAAAAAAB2EnL73b2pb+LKSWgegAAAAAAAAAAAAAAAAAAAAAAAAAAAAAAAAAAAAAAAAAAAAAAAAAAAAAAAAAANDfOaTz/RuNFTqLa1o6MByAAAAAAMzrDvdztyXed0kyXQ96AAAAAAAAAAAAAAAAAAAAAAAAAAAAAAAAAAAAAAAAAAAAAAAAAAAAAAAAAAAAAAAx8GxR5H57jv1Zhoccc1QeAAA9ffUsvdriWHKkvh1IAAAAAAAAAAAAAAAAAAAAAAAAAAAAAAAAAAAAAAAAAAAAAAAAAAAAAAAAAAAAAAAAAABz6xd44g85WuuRZ+uPITLY/ZuLZuj9S6ESdzgAAAAAAAAAAAAAAAAAAAAAAAAAAAAAAAAAAAAAAAAAAAAAAAAAAAAAAAAAAAAAAAAAAAAARjyvPK58WZ5FiyS9liT30AAAAAAAAAAAAAAAAAAAAAAAAAAAAAAAAAAAAAAAAAAAAAAAAAAAAAAAAAAAAAAAAAAAAAAAAAAAAAAAAAAAAAAAAAAAAAAAAAAAAAAAAAAAAAAAAAAAAAAAAAAAAAAAAAAAAAD//EAEAQAAIBAgMDCgQDCAICAgMAAAECAwAEBREgMDFyEBIhIjIzNEFRcRMVUlMUYJEjQEJEYXBzsQZQQ4EkYoCQof/aAAgBAQABPwD/APYOSBVziltb9AYO3oKt8WtpiFJ5jGgc/wCyVziFtbdt8z9Iq8xO4uWIUlI/TltcRntm7RdfpNWuJW1zkA+T/Sf7HyzxQrzpHCj1NXeNSszJAAF+umZmPOYkn1OkEqwYHIjcRVpjMyELOQy+tQ3EU6ho3BH9i3dUGbEAVd41GuaQdY+tSSSSnnSyFjsUkeJg6MQw8xVpjSdm46D9VRyJIodGBB/sOavMTgtgQGDP6VcX9zdd42Q9Btbe8uLYgxyHL6TuqyxWK4GUhCPQII/sJc31vbZh3630ir3FJrjIRkxp+4dHmKtMSntmALF4/pq1xC3uuhGyb6T/AGBkmjiUs7AAVc43I3RAuQ9TUjvK5d2LN6n9zVmRucrFT6irbGpo8hMOevr51DcxToHRgRQ/PjMFBLHICrrGoUBEPXapp5Z3LSOWP7vFNLC3OicqatMaQhUnBB+qkkSRQyMCPUfnnOr3E4bUZDrufKrnELm5Jzfmr9I/e7W+uLTu26v0mrPForghGHNes/zrnVzewWwzkf2FXuKzTsViJjT9+8xVnik1sSGJdPQ1a31tcgcx+t9Pn+c5ZUiQs7AAVdY2xZkgTo+s1JJJK3OkcsfU/wDQo7RsHQlWHmKtsalTITqGHqKhmSZA6MCD+b2YKCSausZgiJSIF2qa4mnOcshb/pYZ5YGDRuVq0xmFgFn6jetKysAVOYP5svMRhtBkes3oKucTubnqk81fQf8AU22I3VtkFfNPpNWWKRXQ6eo3oaH5ouLqG2XOVwKvMXlnzSLNFonM5/8AWWWLTQELKS6VbXsF0CYnz9R+ZpG5iM3oKvJ3uZ3dz55AbO0wqe6HOb9mtJgVqB1y7V8lsfoP60+BW57LuKucHuIVLIRIKIIJBBBHkf3CON5GVEGbMcgKgwLznkPstDBbL6T+tSYHbHsMy1eYfNaHrdZPqGzhmkgcPGxBB/WoX+JGj/UAfzLP3UnCafvH4jssJw8MBPKvAKA03dhDcqc1AfLoari1mtnCSD2PrtgCxAAJJ6BWHWS20C5qPiEZsdEkayKVYZgjIisRsjaTZAdRuzs7Tw8PAPzLP3MnCak7x+I7G2iE08UZ3M1RII0VF3AZDXe2Ud3HzW6CNxqaJoZXjbepy2uDxCS7zO5FzoacbjDWnP8ANDs7Tw8PAPzLP3T8JqTvH4jscM8dB7mhsMSsBcpz07xRRzDMCMiDkRtMB8RNwasV8DLQ3bK08NDwD8yz91JwmpO8fiOxwzx8Hudli2HZqZ4V6w7Q2mBeIm4BqxbwU1DdsrTw0PANGdTXMMHTI4FPjtqu5XNQ4vaTfx83ipXDAFSCKz2ROVT4rawHItzj/Shj9tn3clQ3cM4zjcHXJIsalnYADzNfMLT7yfrX4+0++n61+PtPvp+tfj7T76frX4+0++n61+PtPvp+tfj7T76frX4+0++n61+PtPvp+tfj7T76frX4+0+8n61HKkq85GBHqNhe30dpHzm6W8lpsdujuSMVb46xZRPGACe0KVgygggg6JJo4gWkYKP602LWanLn1DeW83YkU0NmTlUt/axdqVaTFbNz3gFJIrjNWBFZ8ryLGpZmAA3k1JjdrGcsmNQ4zaysF6V96V1YZgg7SSaOIZu4AqTHLZMwAzVBi9rMcsynFQIOqfun4TUnePxHY4Z46D3OyNYrh7Ru9xGBzD2hs8C8RNwDVivgpqG7ZWnhoeAaMUxIQAwxH9p/qmdnObsWPqeWyvZbSQHnEp5rVtcxXMYkiOY2WM3rq/4eM5fUeVJHiZXQ5MPOsPufxVssnnubVjV0XmECHqp29mKwi8EL/BfsueihqdgqkncKuZzPPJIfMnL25cCuCfiQMT6jlvLgW0DynyFSyyTMWkcsc/M8gzG4kVhGIGUCCUkuNx2U8yQRPI5yAq8xGW5fqlkj8lo5enJDPNAwaNyCDWHYit2CpGUg5GIUEncKvr2S6lbrH4YPVHLb3k9swMbnLzWrS/gu16h6w3rsSav8TS2VkQ5y/wCqlmmmcvK5Y8uEXzpOIZHJRhkuqfun4TUnePxHY4Z46D3OzdFkUqwzBGRFYjYmzcEHONt2ywLxE3BqxXwU1DdsrTw0PAOUnIVdP8S5mc+bnTYX72b+qNvFIwdQwOYI2BrEWL3s5ProwFiY5l8udpv7n8NbPJ57lp5HkdnY9ZjmdoCQQRvBzFYbe/i4et2136r8kWkpHpowXxvuh5cdkPwkj9W0YaxW+gP9ctixAGZrEb97qR0ByiB02UzQ3UTA5ZsAaFYlIY7SUj6Tpt55LeYSR7/91Y3qXkfOHQRvXYYlif4UiOPIuaZmdmdiSxPSdCMUdGG8MDUDF4Y2O8qDpn7qThNSd4/EdjhnjoPc7SeGOdCkigqau7V7WZkYHL+E7HAvETcA1Yr4Kahu2Vp4aHgHK/ZNP234jqwi/MMnwZX6h7NA5jPYX/jJ+LRgG6fQaxW8NxOYx2EO2sLr8LOHPZIyakZXVWU5gjMacQ8JL7UOXBvHLwnlx7/xaLDxtvx7A1i2IiU/BgfqjtEak7yPiFLuFXkRmtpUG8qa99MU0sDh43INWV9DdoOaesN66sSxJIEaONs5f9UzM7FmOZO86baMyzxRjzao15iKvoMtM/dScJqTvH4jscM8fB7mhtLy0juomRt/kakjeJ2jdcip/XYYF4ibg1Yr4Kahu2Vp4aHgHK/ZNN234jrwnEC4+BK3SOyaB13/AIyfi0YBun0YhdC2gdv4iMlokkknRaYXPdJzwQor5DcfdWvkNx91a+Q3H3Vr5DP91a+Q3H3Vr5DP91akRo3ZG3qSDyisFvOfH8Bz0p2dOIeEl9qHLg3jl4Ty49ui0WHjbfj1k1iuJGItbxdojpbWneR8QpeyOTFbE20plXsOf01W88ltIske/wD3VjfJeRc4DJhvXlNYnif4UiKMAuRTMzuzsc2O86sGsSD+Jf06g1T90/Cak7x+I7HDPHQe51GrK/EzyQu2UiOR7jXidh+LiBTISLuNMjI7IwyYHIjXgXiJuAasV8FNQ3bK08NDwDlfsmm7b8R1gkEEHIjdWHYgtygRjlKo6aGk1f8AjJ+LRgG6flYhRmaxS5FzdEqeonQNFtA1xMkYByJ6T6CkQIoVRkANeNWT878Sm4Dr6IpDFKki71OdW9xHcRq6HMaMQ8JL7UN3Lg3jl4Ty49ui0WHjbfj14jiCWi8wdMjCixYkkkknMnWneR8QpeyPbknhSeJ43GYIq8sZbJsm6VPZbVDPJA4eNyDVlfRXa9U5MB0ryYliSwI0UTZy/wCqZmclmYljvOrDsNe4KyuMogf1pVCgADIDVP3T8JqTvH4jscM8dB7nUakd47uSRDkyytlVhfLeR+jLvGvFMNVw9xF2/MeuvAvETcA1Yr4Kahu2Vp4aHgHK/ZNN234joyOWeXRohmkglWRD0irC8F3AH3HcRpNX/jJ+LRgG6flxe6MNvzB2n6NOD2gjg+Ke09DXJGsiMjDMMMjV3ataztGd3kdGDXfwZjEx6r0Dy4h4SX2ocuDeOHCeXHt0Wiw8bb8eq+vFtIWfe3kKmmknkMkhzY6MjoTvI+IUvZHtyz28c6FJFBFXtjJaP6odzaoLiW3kEkZyapMcYwLzE/ammJZ2diSzHMk6sNww3BEkvd/7pESNAiDJRuGufun4TUnePxHY4Z46D3Oo1P383+Rqt7iS2lWRKtbmO5hWRDqIrFrD4R+PEvVPbAry04F4ibgGrFfBTUN2ytPDQ8A5X7Jpu2/EdGG2wurS4jP/AKqeCW3kMcgybRaXUlrKHUnL+IVBMk0SyIcwdBq/8ZPxaMA3T8jEKCTuAq9uGubiR8yVz6ujD7Y3F0i5dUdLUqhQABkBscUszdQdReupzFfgbv7D1+Bu/sPX4G7+w9fgbv7D1YSSvbp8VCrr0EGhyXys9tIFGZIo4fe/YavwF79hq/AXv2GrCrS5iuw8kRUc08hrHv8AxaLDxtvx6bm5itoy8jZCrq4e5neVjwj0Gi2tpLmVY0HufQVi1vHbQ28aD10J3kfEKXcPbRPCk8bRuoINXtlJZSZP0qey20w3DTcESyD9n/ulUKAAMgNhP3T8JqTvH4jscM8fB7nUan7+b/I3JZX0tm/R0xk9ZajdZEDKcwRqdFcFWGYNYlYm1csndE/ppwLxE3ANWK+CmobtlaeGh4Byv2TTdt+I6MB7uWsRsEu1B3Ou40QyllIyIORGjDr57WXJjnEx/So3V1DKcweU1f8AjJ+LRgG6fkxm+MCfBTtSDThdl+Gi557bgE7PKsqy1ZaTWPbotFh42349EjrGjOxyAGZq/v2vHGQyjXcNCqzsEUEk9AFWNlHaRAb3PaNY/wDy/udCd5HxCl3D20z28VwhSRcxV9YyWj+qHc2yw3DTcESSjKMf/wBpEWNQqjIDYz90/Cak7x+I7HDPHQe51Gp/ET/5G5cLvxauySMfhtSsGAI3HVNEk0bIwzBFXdpLaSBX3HcdGBeIm4BqxXwU1DdsrTw0PAOV+yabtvxHRgHdzcmLWHxUM0Sdcb6/9ZaMKxBIc4ZmyUnqGhy3/jJ+LRgG6epZVijZ3OQUVeTm5uJJfIno0YZaNcTq2XURumhy3F9bW/RJIAfSmx22G5HNfP4PsvXz+D7UlfP7f7UlfP7f7UlfP7f7UlfP7f7UlfP7f7UlfP7f7UlDHrX7clfPrX6JK+e2v0SVZ36XgcxowC+Z5J5VgjaRs8hXz6z+mSvntn6PXz2z/wDvVtiltcyiNOdny49ui0WHjbfj5SQKxTEDO5ij7sH9dABJAAzzOQrCrBrZC8oHxG5P+Qfy3udCd5HxCl3D20mp4UnjaNxmCKvbGWzfJulTubYYZhpuMpZO7/3SgKAAMgNlP3T8JqTvH4jscM8dB7nUan7+f/I3LlnWFYkQUtpfZWoaryziu4+a+8bjU8LQTPE29Ty4F4ibgGrFfBTUN2ytPDQ8A5X7Jpu2/EdGAd3NyZA1i9h8J/jxDqt2hpwrEmmPwJe0B0NWfJf+Mn4tGAbp6u4PxFvJFnlmKkjaJ2jbehy0YFJGYGQdoNy4ldm1ty69onIVLI8rmSRucx89oil3VBvYgCrS2jtoQiD3PJiHhJfbRg3jhwHlx7dFosPG2/HyGsXxBh+wiPERpwrDhklzJ7qvLj/8t7nQneR8QpeyPbSeTGLyNAIeYHY61ORHQD/Q1hl1HPAAqhCnQV2c/dPwmpO8fiOxwzx8HudRqfv5/wDI2j231heI/HHwpO8UfrQOrELEXUJ5oHxBuNMrKSrAhhvB5MC8RNwDVivgpqG7ZWnhoeAcr9k03bfiOjAO7m5WUMCCMxWIWElrIzjuier/AE0KzKwZTkRuNYZfC5iCsf2i7+S/8ZPxaMA3T8mNWb88XCDq5dfRaTm3uI5BuB6aR1kQMpzBHJj+fMg4jtcFs+cTcuOChyYh4SX20YN45eE8uPbotFh4234+TE8RSFHhQ/tSKJzOjDMPNy3xH7sUAAABy/8AIP5b3OhO8j4hS7h7asSxOOFHiifOX/VEljmSSfM7CGWSFw0blTVlfw3agKcnA6V2U/dPwmpO8fiOxwzx8HudRqfv5/8AI2lWKMrKSCNxrDr5buIZkCQdoa8Ww/4q/HiHXG8eo5MC8RNwasV8FNQ3bK08NDwDlfsmm7b8R0YB3c2ieFJ4mjfcwq8tTaTmLeN6nRFNJBIsiHIirS6juYVkX/2Kv/GT8WjAN0/JLGssbI25gQamiMM0kZ/hbLRgl0Tz7d/deTErU3VsyjtDpWmVkZkdSrA5EbOGJ5pFjTeatoRBDHGP4Ry4h4SX20YN45eE8uPbotFh42346xG+FnECBm7bhUkjSOztvY5nRh9m13NkRlGO0ajjWNQqjIDR/wAg/lvc6E7yPiFLuHty50TWJYp+GPwowC5H6UTmSTvJzOygleCVZY+0Kw+9W7i525xvGxn7p+E1J3j8R2OGeOg9zqNT9/P/AJG1QSvBMkqbwatrqK6QPG2vFsOKlriIdX+IVgPfzcGrFfBTUN2ytPDQ8A5X7Jpu2/EdGAd3NpvbOO6iKsOsOyakikikaN1IYaLK6NrOr/w7mFXciy3EsibmOjAN0/LjVqGj+OqdZe1ot5jBNHKP4TVvOlxCki7m5Liyt7jvIwT602AxnsyEV8gH36+QD71fIB96vkA+/RwFcu/q4SJJCsT84DoJ0YJaMoed14dGIeEl9tGDeOXhPLj26LRbSrDPFIdymrm4kuZmkc+w0WtrLdycyP3J9KtrdLeJY1HQBpx/+X9zoTvI+IUu4aMSxJIY2iifOX/VZlukkkn11NDIkaSMhCtuOqKWSFw8blSKs7+K7Uc09bLpXYT90/Cak7x+I7HDPHQe51Gp+/n/AMja7K8ezkLgZq3aFRSrLGrruYZ6mAKkEdFWliLS7kaPu3XVivgpqG7ZWnhoeAcr9k03bfiOjAO7m1YnYi5j5694u6mBVipGRG/YYBun5ZEDoysMwRkav7YW1y8flvXRgt58Mm3bzOa7DFr38NDzF7b6LWA3E8cXqemkQIoUbgNGIeEl9tGDeOXhPLj26LYRxtLIsa72OQqwsVs4ss82O86v+Q/y/udCd5HxCl3DkNYniRtiIowC5H6USSSTvOrDMOM7CWUZRipLeKSP4bKOblV7YyWj+qHsnVDNJBIskZyIqwvlu4s8snHaGufun4TUnePxHY4Z46D3Oo1P38/+Rthht81rKEdj8E0rBhmNpivgpqG7ZWnhoeAcr9k03bfiOjAO7m14vh7yETwpxjYYBun0YtZfiIS6rm6aFJVlYHIqcxVndR3UIdT7jVJIkalnOQFXs5ubmSTy3L7aMFtfhQGVh1n04h4WX20YN45eE0OTHt0WsAsQACTWF2AgQSSKPiHX/wAg/lvc6E7yPiFLuHJil+tvEY0b9q1Ek9LEk+ZOrDcMaciWUZJSqAAAMgKyqaFJo2jdQQavrGSzkPRnGey2qKWSFw6MQQas7uO6jDKenzGqfun4TUnePxHY4Z46D3Oo1P38/wDkbY4TiJDC3lPCaB2eK+ClobK08NDwDlfsmm7b8R0YB3c3INLVimH/AACZ07DN0j014Bun0EZ1iVobW4P0OSRotL2azL/Cy63rXzy8+mOvnl56R188vPSOvnl56R188vPSOrrE7i6iMT80L/TRYWv4u4VM+qOlqRQihQOgDIacQ8JL7aMG8cvCaHJj3/i14NY/zMg4RWWvHx4fQneR8QpeyKdwilj5Cp5TPNJKd7HVhuGmZhLL3fkPWgABkNE0KTRsjjMEVe2Mlo/qn8J1YTcGC7QeT9B1T90/Cak7x+I7HDPHQe51Gp+/n/yNssKxJZESCVuuNni3gpdnaeGh4BytuNP234jowHu5thJGsqFHUEGsQszaTHo6jdnVgA6kx04lam5tmUdsdK0QykqwyIORG1wqyNtESw676sQ8JL7aMG8cvAeXHkPMibyz1YXh7zSpNIP2QoAAbDH90GiPpkj4hS9kViTFbOXh1YdhhnIklXJB5HzpVCgADIDVNCk8ZR1zU1f2UlpJuJjJ6p0qSroRvDCoGJhjJ81Gmfun4TUnePxHY4Z4+D3Oo7qn7+f/ACNslJVgynIqcwaw2/F5Gcxk67xssW8FLs7Tw0PAOU1fQNBcyrkcixI0YRb/AAbVCd7jPY3FvHcRlHGYNXlpJaSFWGa+TacHgMVoCd7ktqxm2+DcfFUdWTaYZaG5nBPYQgmgNUqB0ZT5ipYzHLIh/hYjlwGLOWWX0XLlxO2/EWrqO0OkacOw43bFpARGKSNUVVUZADIbHFbQ3VvkO0nSNGF2hublSeyhz5LqL48EkfqpogqSCOkHI6MMw0zuJZQRGOkD1oKBuGwmhSZCjrmDV9YyWj+sZ3HRaQme5ij9WpFCKqjyGmfun4TUnePxHY4Z4+D3Oo1cd/P/AJG2cM8kEgkjOTCrS6juog6n3Hodji3gpdnaeGh4Bymr2zS7iKNv/hPpUmDXqHJQHpcLvye5yqywbmNz7jI+i0BkANlLDHKhWRAwq4wNixMDgD6TTYVfg9zn7EUuFX5/8OXuascH+DIJJyGPktZDVdQLPC8ZG8V8nv8A6F/Wvk9/9A/Wvk9/9A/Wvk9/9C/rXye/+hf1r5Pf/QP1r5Pf/QP1r5Pf/QK+T3/0Cvk999A/Wvk9/wDQKw+1NtbIhyD721msSwsXOcsWQl/3TWF6hyNu9QYTdzMAyFE8yaggjgjCRqABovMKguASoCP6imwG5B6sqkUMBufOVKtcGghyaTrtQUKMgMhs73CYbgl06j0cCuvJ0qHAXzBllGXoKggigXmxoFHIaxHCvj5ywAB/MetPYXiHIwPSYdeyEAQMPerPBhGedPk58hQAUADZSRJKpV1BB8jV3gknPLW+WX001heLvgeo8NvZDkICOKsPw5LQFic5DvOqfun4TUnePxHY4Z46D3NDSauO/n/yNtLS6e1mEg3fxCo5FkQOpzBGwxbwMuztPDQ8A/J2X7vP3T8JqTvH4jsbWUQ3EUhPQGqNw6hlOYIzB0zypDEzscgBTtz3ZvqYn9drhd9+EkKyE/CakdXUMpBB3HXjcwS05nm52dp4aHgH5ln7p+E1J3j8R2WD3ymMW7kBl7P9Rpxi+WX/AOOhzA7R29hibW/MicZx/wCqjlSVQyMGGmWVIUZ2OQAq/vDeSh8slAyA2dr4aHgH5llUsjKPMVPG0c0iMMiG2QJBBByI3GrTGnjHNnBb+ooYxYkd7TYxYjdITV5i8s/UhJjT9xhnngOcUhWoMdyAE0Z9xQxmxO9yKOL2H3qmxyFe6Rnq4u57ly0jnLyTyGzALEKBmSchUClIY1O8KB+Zr3DILshySrjzFXVlPasQ4zXyYf8AW2tpNdOFRSB5tVnhcNseeSXf80OiuCrKCD5Gr7BhIefbkIfpqa3mgOUkZX/qYoZZmCxoWNWeC5Hn3OR9FpEVFCqoAH5qyFTwRzoUdcwavMFZM3gbMfSaIIJBBBG8H/pQMyAOknyqzwd51DzEoPSoLeK3QJGuQH5vurKG5QhlGfk1XGFXUBYqvPT1H/R22G3Vx0heavq1WmHwWyrkgL/VQH5xyq8wmG4PPXqPV1aTWsnNcZj6hu/f7e1muX5sa5+pq0weCBlkcl3FAAfnV0VwVYAg1fYMD17bIeq1NDLA3NkQqf3uKKWVubHGzH0FWeCkMHuCOCkijjXJFCj0H55nt4p0KSLmKu8GeJS0DFx6UQQSCCCPI/vFnhEs4DyHmIf1q2tYbZOZGv57y5LqwguQc0AbLtVc4XdW/TzeevqtZH90tsOurnIqnNX6jVlh0NqNwZ/qrIfn8irzCIZ2aRCUeri1mtmykHsf3GCCW4cJGp9/IVaYNFF15jz2oAAZD+wbxpIvNdQR6Gr3BQc3t+g/TUkUkTc2RCp/rtUjeRgkalmPkKscGJ610PZajijiUKiBQPIcmVZf2EuLWG5TmSLmKvMIlhzeI89NnZ4RNP1pCUSra0htUCov9i7rDra5HWXJvUVdYbcWxY8wtH5MNdtYXNyeqhVfqNWuGW1uASgZ/qP9jiAau8GhmPPiPMap7eW3kKSLu8/I8sMMk78yNCTVpgscZR5nLMKAAGQ/sjJFHIpV1BBq6wQHw55v9DVvgZzznYEegqKGOJeaiBR/+U3/xAAtEQACAQMCBAQGAwEAAAAAAAABAgADEBEgMQQSMkEUITNREzBCUGBhIkBxcP/aAAgBAgEBPwD/AJHkfhJYCFybKxEDA/guRGf2m50CBz3gOfwIuO0yT8jJG0D+8Bz9+LAQsT8wMRtA4+9swELk/wBAOVgYH7uTiGp7f0x5QOe8BB+6M2BCSd9PKxnI0II+TyMYVI0g4iNn7nU0oM3IyIy410x3uwwdNPc/c6nbTT0EAiEYOpOm776ae5uXUbmBgdjqLBdzA6nY6CwG5nOvvOdfec6+85195zr7jS1VF3iur7G2cQOp76+dfe5ZRuYGU7HUSBOdPcaH7aaex0sMiYx5HSnTd99NPc2ruVXyhJMViplKpzjTVYlzASDkSm3MoNicAmVH5mmZmZMyZmUKmf4m5OAYxJJlFiHFuIc83KICRKDcyaatUk4BmTKVUgiE4BMZiSYGIPlKVUOP3oZgoJMqVS5mTOHckEG9Ttpp7amXOlOm776ae5txOwujlTFYMMjQ/UbUfTFuIfA5RZVLbT4L+0+C/tPgv7QgiI3KwMRgyg2bpP8AkO5lL1FtX67cN0HRWq4/iLr1CYyuI6FSbAkEESlVDj92ZgoyZUqFz+r0E5Vyb1O2mntdjgjQ699CdN33009zbidhopVCh/UBBF36jaj6YjMFBMdixJtQTlXJ3OivT+q1Cpg4Nm6T/kO5lL1FtX67cN0m9aryDA3hOTdeoQSpTDj9xlKnBspKnIiV1K+cq1S5vSo9zoqaaexvU7RGxodced06bvvpp7m3E7C1AAvgyrTKH9Wo1eU4O136jaj6YnEP9NqKFm/Q0sAwwZ4ZfcwcOvuYPIQjIInhl9zFoKpBtX67cN0m1SoEH7jEkkmAZnwwlI+9l6hBapTDj9xlKnB00qJyGOmppp7G9TtZG7aHXBsnTd99NPc24nYWodcZQy4MqIUbFqNXZTZ+o2pekP8AI+SxzagoCAxiACY3EN2niKk8RUniKk8RUniKko1HffaHyBMPEPEruzAWr9duG6THcKMx3LEmbyhSx/Iyt0Gy9QgvWRSpJ0UFVm89VTtpp7G9TtdG7G5GRGXlMTpF33009zbidhbh/UtUphxGUqcGAyjUDDBj9RtR9MTiEweYW4d8HlMqLlDCDpAyZTXkUCN0n/IdzKXWtuI9S1AhUJMqVC5tQpZ8zat0Gy9QgszBRkyrULnQpKnIlKrzjHfTU7aae16nbQjZuRkRRgXffTT3NuJ2FqHXetS5xkbwjEVipyITk5tR9MR15lIjLykiA4OZTcOohpqdxPhJ7T4Ke0rhB5AWoU8nmNm6T/kO5lLrW1frtzHGLUaZY57QDFq3QbL1CCMwUZMqVC5/V0oEjJjKVODZWKnIlKqH8jvoftpp7G9TtoHkYGyNT76ae5txOwtw/qaK9L6hoo+mtuIp/ULUagQ+c8RTniKcPEJiMxYkxVLECIvKoFm6TDuZS61txHqXp0y7YiqFAF63QbL1CDaVahc/q9Gl3a1SmHEZSpspKnIlJ+dc3qaaexvU7aQcGA50vuNNPc24kHANuHB59BlaljzF6QIQCxAIIjrysRq4dPqN22MbcyiMutuIUhs2RCxlNAi6KgJQiyKSwh6TDubUaOzHRUphxGUqcG3DA4N6mmnsb1O2pWwdL7jTT3NiARgw8OkVFXbSY1BDFoopzoekr7zw6Tw6Tw6Tw6Tw6QAAYGh6KscxKaptYqDuJ8BIqgbDU1FGOSIqKuws1FWi0EUzGlkVh5ieHT3MVQowL1NKHF3OTrR8eR0Mctpp7n7m6k7TBGkORC5PyQSJ8QwsTqRSPuhAMKEf1AhMCgfdygMKkf0ApMCgfeymYQR8wAmBB3m334p3HyR5wJ7wAD8BKgwoRqCEwKBMfgjKDCpFgCYEA/CMTkEx/wAI/8QALhEAAgEDAwIEBQUBAQAAAAAAAQIDAAQQESAxEjIhM0JhExRQUXEiMEFSYEBw/9oACAEDAQE/AP8AyP4qa6dQ1/xLyog8TUty7+A8BWpqK4ZOfEVHKknB/wAKzqo1JqW65C0WJOpOwMQdQaiuiPB6V1Yag/4EkCpLpV1C+Jp5Gckk/sI7IdQaiugfB6BB4+vSXCJ7mpZ3c8+H7kczx1HcI/sfrbyKg8TUtyzeA8BRJP7w8KiuWTwPiKjlSTg/V2YKNSakuv4SixJ1J/4gxB1BqK6/h6VlYag/VJ5fhL708jOfE7UtpG8dK+Ukp43TuH7AUsQBQtZDT28iDXakjIdQagm+KPcfU7z07bWMMSxyyhhoRU8PQdRxvtIx09eCAauECPts+W+p3np22fYdjqGBBqaIxtutvKGbzuG2z5bJdBywoOrcHczKvJoSI3DDYWVeTXWn3Fda/cV1p9xXWv3Fda/cUCDseZEOhNJIr8HBIFB0P8jeZEB7hQIOGdV5NK6twd2oFfFj106hsvPTts+w7ZYxIpBp0KMQdtt5Qzedw22fLYuJCieHJrUmldkIINQyiRffbM5Z2oEg+FRN1RqcE6AmpXLsTs1NamraXUdJyx0UmmJZiTUDESLi5c9egoE61buXTYannLHRT4VqaglZWA18KZtFJp2LEkmlZlPgahmDjQ87HcKCTUszOfDjFq5ZSDm89O2z7DumhEi+9EFTodlt5Qzedw22fLYu/TmNyjAikcOARsk72xb+UuLmTQdIwqM/Ar4Ev9a+BL/WvgS/1ogilYqwNI4dQRh+xvxR5qHzFxceYcWnYdlxMO1cp3CtNV09qdCjEYBKnUVBMHGh5w7BQSallLnNshVNTyc3np22fYczSfDKmlYMARxm4h6h1LzstvKGbzuG2z5bF36dkMpjb2pWDAEZk72/OLfylp2CqTTsWYnFvH0LqeTsuYtD1DFvL0nQ8HD9jfijzUXmL+cXHmHFp2HM8wQaDmuTle4UOBUsQkHvTKVJBGASCDUdypX9XNSylz7ZggJ/U2y89O2z7Dm87Vq3n6D0txQ8c3MGn6lzbeUM3ncNtny2Lv04twC+hqeIxnUcYgm6T0njMne35xb+UtXUnpGIIy76/wAChsZQwINfKJ9zQtVH8ml8ABRGoIr5RPuaW2VWB1OLnzDi07DiWUIp+9MxYkmgCx0r4Xw4WJ5OF7hQ4GJoRIPenQodDtgg10Ztt56dtn2HN52ri3n4Q5I1FTwlDqOMW3lDN53DbZ8ti79OLbzBToHUg06FGIOLebX9DYk72xD5A/FPqWOuLdQqUzBQSae6bU9NfNS181JXzMtfNS181LUEkjnx4pjopNG6kqO5dnAOLjzDi07DUjhFJNO5dtTi3h6R1Gp/KOF7hQ4GZ1QrqedluiM36t156dtn2HN52rgHSrebrHSecsoYEGpojG3tVt5Qzedw22fLYu/Ti28wYljEi0ylSQaBqCXrXQ8gVJ3t+cW/lLVzF0t1Dg4tZND0mpVLRkUQQdoGpAqJAiAU/Y34o81D5i4uPMOLZgsbE1NL8RsQQdRDHjE/lthe4UOBhmCgk1LKXOwEioZw+gPO289O2z7Dm87VyrFSCKglEi++ZIxIuhqFSidJzedw22fLYu/Ti28wZnh6x1DmiKVip1FE6nXFv5S06B1Ip16WIoEjQionEiA00SMdSK+BH/WvgR/1q4CLoFGLWPU9Rw/Y34o81D5i4ufMOOohenEEXWdf4oAAaDE/lthe4UOBTOFBJqWUucpbMy6mmQqSDhWKnUVDMGGjc7Lz07bPsObztXZG7IwIqOQSKCN153DbZ8ti79OLbzBsuIfWuy38pcXUfrGIJfhnx4r5qOvmo6N0mh0pm6iTSqWYCkXoUDD9jfijzUPmLi48w5jjLsBSKFUAZn8psL3CtdBU8pdvYZgg10ZsSxCQe9MpUkHAJBBqGTrTN56dtn2HN52rthlMbClYMARtvO4bbPlsXQJUHFsCZNds8JXxHGYQVjUYYBgQakUoxG61j9Ryw1UimBBNQAmRcXSkPrhELnQVFGEXTZMvVGwoio1LOAKYaoR7UQQTiCDXRm2TQiQe9MpViDi1B0JzeenbZ9hzedq7oJih0PFA7LzuG2z5bBAYaGjaprSIqDQbSAaa2jY0tuinXY8KSEE18rHXysdfKx18rHXysdKAoA2Pbo514qOJY+MMisNCK+XjpUVeBuaCNjqRSRInAw9ujnWktkWhteJH5FfKJ9zSqFAAzeenbayAEqc3Thm0H8b4LjT9LZJ0q4kDudNtny31O4hMg8ORTKynQjYDpS3MijSnuZGFE6/sJO6cGvm5PsKeeR+TtVSx0Aq3hMY1PJ+qPGrjQipbVl7fEUQR/wAQGtRWzN4t4CkjVBoB9XkgSSpbd09x/wAEcDv+KjgRPrRGtS2yt4r4GnjdOR+4kbudAKitVXQt4mgNPrrKGGhFS2v8pTKVOhH7CqWOgFR2vBalUKNAP8C8avyKktmXxXxFEabYrZn0LeApIkQaAf4WSBH9jUkDp7jEcDvUduie5/xBANfLx666UAB/4R//2Q==;container=0;" parent="1" vertex="1">
          <mxGeometry x="726.25" y="1634.357142857143" width="128.62142857142857" height="53.42857142857143" as="geometry" />
        </mxCell>
        <mxCell id="kthAWzpPzz_Ot7cgUqlj-39" value="&lt;span style=&quot;color: rgba(0, 0, 0, 0); font-family: monospace; font-size: 0px; text-align: start;&quot;&gt;%3CmxGraphModel%3E%3Croot%3E%3CmxCell%20id%3D%220%22%2F%3E%3CmxCell%20id%3D%221%22%20parent%3D%220%22%2F%3E%3CmxCell%20id%3D%222%22%20value%3D%22%22%20style%3D%22shape%3Dcylinder3%3BwhiteSpace%3Dwrap%3Bhtml%3D1%3BboundedLbl%3D1%3BbackgroundOutline%3D1%3Bsize%3D15%3B%22%20vertex%3D%221%22%20parent%3D%221%22%3E%3CmxGeometry%20x%3D%22400%22%20y%3D%222440%22%20width%3D%2260%22%20height%3D%22115%22%20as%3D%22geometry%22%2F%3E%3C%2FmxCell%3E%3C%2Froot%3E%3C%2FmxGraphModel%3E&lt;/span&gt;&lt;span style=&quot;color: rgba(0, 0, 0, 0); font-family: monospace; font-size: 0px; text-align: start;&quot;&gt;%3CmxGraphModel%3E%3Croot%3E%3CmxCell%20id%3D%220%22%2F%3E%3CmxCell%20id%3D%221%22%20parent%3D%220%22%2F%3E%3CmxCell%20id%3D%222%22%20value%3D%22%22%20style%3D%22shape%3Dcylinder3%3BwhiteSpace%3Dwrap%3Bhtml%3D1%3BboundedLbl%3D1%3BbackgroundOutline%3D1%3Bsize%3D15%3B%22%20vertex%3D%221%22%20parent%3D%221%22%3E%3CmxGeometry%20x%3D%22400%22%20y%3D%222440%22%20width%3D%2260%22%20height%3D%22115%22%20as%3D%22geometry%22%2F%3E%3C%2FmxCell%3E%3C%2Froot%3E%3C%2FmxGraphModel%3E&lt;/span&gt;" style="sketch=0;points=[[0,0,0],[0.25,0,0],[0.5,0,0],[0.75,0,0],[1,0,0],[0,1,0],[0.25,1,0],[0.5,1,0],[0.75,1,0],[1,1,0],[0,0.25,0],[0,0.5,0],[0,0.75,0],[1,0.25,0],[1,0.5,0],[1,0.75,0]];outlineConnect=0;fontColor=#232F3E;fillColor=#ED7100;strokeColor=#ffffff;dashed=0;verticalLabelPosition=bottom;verticalAlign=top;align=center;html=1;fontSize=12;fontStyle=0;aspect=fixed;shape=mxgraph.aws4.resourceIcon;resIcon=mxgraph.aws4.ec2;container=0;" parent="1" vertex="1">
          <mxGeometry x="892.5" y="1630.4285714285713" width="61.285714285714285" height="61.285714285714285" as="geometry" />
        </mxCell>
        <mxCell id="kthAWzpPzz_Ot7cgUqlj-31" value="" style="rounded=1;whiteSpace=wrap;html=1;container=0;" parent="1" vertex="1">
          <mxGeometry x="680" y="1820" width="320" height="200" as="geometry" />
        </mxCell>
        <mxCell id="kthAWzpPzz_Ot7cgUqlj-32" value="&lt;font style=&quot;font-size: 18px;&quot;&gt;&lt;b&gt;Target group&lt;/b&gt;&lt;/font&gt;" style="text;html=1;align=center;verticalAlign=middle;whiteSpace=wrap;rounded=0;container=0;" parent="1" vertex="1">
          <mxGeometry x="670" y="1820" width="160" height="50" as="geometry" />
        </mxCell>
        <mxCell id="kthAWzpPzz_Ot7cgUqlj-41" value="" style="rounded=1;whiteSpace=wrap;html=1;container=0;" parent="1" vertex="1">
          <mxGeometry x="735" y="1880" width="210" height="110" as="geometry" />
        </mxCell>
        <mxCell id="kthAWzpPzz_Ot7cgUqlj-42" value="&lt;span style=&quot;color: rgba(0, 0, 0, 0); font-family: monospace; font-size: 0px; text-align: start;&quot;&gt;%3CmxGraphModel%3E%3Croot%3E%3CmxCell%20id%3D%220%22%2F%3E%3CmxCell%20id%3D%221%22%20parent%3D%220%22%2F%3E%3CmxCell%20id%3D%222%22%20value%3D%22%22%20style%3D%22shape%3Dcylinder3%3BwhiteSpace%3Dwrap%3Bhtml%3D1%3BboundedLbl%3D1%3BbackgroundOutline%3D1%3Bsize%3D15%3B%22%20vertex%3D%221%22%20parent%3D%221%22%3E%3CmxGeometry%20x%3D%22400%22%20y%3D%222440%22%20width%3D%2260%22%20height%3D%22115%22%20as%3D%22geometry%22%2F%3E%3C%2FmxCell%3E%3C%2Froot%3E%3C%2FmxGraphModel%3E&lt;/span&gt;&lt;span style=&quot;color: rgba(0, 0, 0, 0); font-family: monospace; font-size: 0px; text-align: start;&quot;&gt;%3CmxGraphModel%3E%3Croot%3E%3CmxCell%20id%3D%220%22%2F%3E%3CmxCell%20id%3D%221%22%20parent%3D%220%22%2F%3E%3CmxCell%20id%3D%222%22%20value%3D%22%22%20style%3D%22shape%3Dcylinder3%3BwhiteSpace%3Dwrap%3Bhtml%3D1%3BboundedLbl%3D1%3BbackgroundOutline%3D1%3Bsize%3D15%3B%22%20vertex%3D%221%22%20parent%3D%221%22%3E%3CmxGeometry%20x%3D%22400%22%20y%3D%222440%22%20width%3D%2260%22%20height%3D%22115%22%20as%3D%22geometry%22%2F%3E%3C%2FmxCell%3E%3C%2Froot%3E%3C%2FmxGraphModel%3E&lt;/span&gt;" style="sketch=0;points=[[0,0,0],[0.25,0,0],[0.5,0,0],[0.75,0,0],[1,0,0],[0,1,0],[0.25,1,0],[0.5,1,0],[0.75,1,0],[1,1,0],[0,0.25,0],[0,0.5,0],[0,0.75,0],[1,0.25,0],[1,0.5,0],[1,0.75,0]];outlineConnect=0;fontColor=#232F3E;fillColor=#ED7100;strokeColor=#ffffff;dashed=0;verticalLabelPosition=bottom;verticalAlign=top;align=center;html=1;fontSize=12;fontStyle=0;aspect=fixed;shape=mxgraph.aws4.resourceIcon;resIcon=mxgraph.aws4.ec2;container=0;" parent="1" vertex="1">
          <mxGeometry x="847.5" y="1900.4285714285716" width="61.285714285714285" height="61.285714285714285" as="geometry" />
        </mxCell>
        <mxCell id="kthAWzpPzz_Ot7cgUqlj-43" value="" style="dashed=0;outlineConnect=0;html=1;align=center;labelPosition=center;verticalLabelPosition=bottom;verticalAlign=top;shape=mxgraph.weblogos.apache;container=0;" parent="1" vertex="1">
          <mxGeometry x="765" y="1892.3999999999996" width="42.6" height="85.2" as="geometry" />
        </mxCell>
        <mxCell id="4bWy2ilgJK2MeaBhGG6L-8" value="&lt;span style=&quot;color: rgba(0, 0, 0, 0); font-family: monospace; font-size: 0px; text-align: start; text-wrap-mode: nowrap;&quot;&gt;%3CmxGraphModel%3E%3Croot%3E%3CmxCell%20id%3D%220%22%2F%3E%3CmxCell%20id%3D%221%22%20parent%3D%220%22%2F%3E%3CmxCell%20id%3D%222%22%20value%3D%22%26lt%3Bfont%20style%3D%26quot%3Bfont-size%3A%2018px%3B%26quot%3B%26gt%3B%26lt%3Bb%26gt%3BAZ%20us-east-1a%26lt%3B%2Fb%26gt%3B%26lt%3B%2Ffont%26gt%3B%22%20style%3D%22text%3Bhtml%3D1%3Balign%3Dcenter%3BverticalAlign%3Dmiddle%3BwhiteSpace%3Dwrap%3Brounded%3D0%3Bmovable%3D1%3Bresizable%3D1%3Brotatable%3D1%3Bdeletable%3D1%3Beditable%3D1%3Blocked%3D0%3Bconnectable%3D1%3B%22%20vertex%3D%221%22%20parent%3D%221%22%3E%3CmxGeometry%20x%3D%22-389.99666666666667%22%20y%3D%22-50%22%20width%3D%22160%22%20height%3D%2260%22%20as%3D%22geometry%22%2F%3E%3C%2FmxCell%3E%3C%2Froot%3E%3C%2FmxGraphModel%3E&lt;/span&gt;" style="rounded=1;whiteSpace=wrap;html=1;container=0;" parent="1" vertex="1">
          <mxGeometry x="1300" y="1470" width="510" height="1360" as="geometry" />
        </mxCell>
        <mxCell id="4bWy2ilgJK2MeaBhGG6L-9" value="&lt;b style=&quot;forced-color-adjust: none; color: rgb(0, 0, 0); font-family: Helvetica; font-size: 18px; font-style: normal; font-variant-ligatures: normal; font-variant-caps: normal; letter-spacing: normal; orphans: 2; text-align: center; text-indent: 0px; text-transform: none; widows: 2; word-spacing: 0px; -webkit-text-stroke-width: 0px; white-space: normal; background-color: rgb(236, 236, 236); text-decoration-thickness: initial; text-decoration-style: initial; text-decoration-color: initial;&quot;&gt;Private subnet 10.1.1.0/24&lt;/b&gt;" style="text;html=1;align=center;verticalAlign=middle;whiteSpace=wrap;rounded=0;movable=1;resizable=1;rotatable=1;deletable=1;editable=1;locked=0;connectable=1;container=0;" parent="1" vertex="1">
          <mxGeometry x="1340" y="1479.7979520383226" width="233.14145732872413" height="77.59978014351522" as="geometry" />
        </mxCell>
        <mxCell id="vA6beivC7NnF0CchnOPw-16" value="&lt;font style=&quot;font-size: 18px;&quot;&gt;&lt;b&gt;Elastic IP&lt;/b&gt;&lt;/font&gt;" style="rounded=1;whiteSpace=wrap;html=1;" parent="1" vertex="1">
          <mxGeometry x="-150" y="2226.46" width="320" height="60" as="geometry" />
        </mxCell>
        <mxCell id="vA6beivC7NnF0CchnOPw-24" value="" style="shape=cylinder3;whiteSpace=wrap;html=1;boundedLbl=1;backgroundOutline=1;size=15;rotation=90;" parent="1" vertex="1">
          <mxGeometry x="1158.23" y="2128.23" width="40" height="256.46" as="geometry" />
        </mxCell>
        <mxCell id="vA6beivC7NnF0CchnOPw-25" value="Security group&lt;div&gt;&lt;br&gt;&lt;/div&gt;&lt;div&gt;SSH&lt;/div&gt;&lt;div&gt;HTTPS&lt;/div&gt;&lt;div&gt;HTTP&lt;/div&gt;" style="fillColor=none;strokeColor=#DD3522;verticalAlign=top;fontStyle=0;fontColor=#DD3522;whiteSpace=wrap;html=1;" parent="1" vertex="1">
          <mxGeometry x="1000" y="1595" width="100" height="90" as="geometry" />
        </mxCell>
        <mxCell id="vA6beivC7NnF0CchnOPw-26" value="Security group&lt;div&gt;&lt;br&gt;&lt;/div&gt;&lt;div&gt;SSH&lt;/div&gt;&lt;div&gt;HTTPS&lt;/div&gt;&lt;div&gt;HTTP&lt;/div&gt;" style="fillColor=none;strokeColor=#DD3522;verticalAlign=top;fontStyle=0;fontColor=#DD3522;whiteSpace=wrap;html=1;" parent="1" vertex="1">
          <mxGeometry x="1000" y="1880" width="100" height="90" as="geometry" />
        </mxCell>
        <mxCell id="vA6beivC7NnF0CchnOPw-27" value="Security group&lt;div&gt;&lt;br&gt;&lt;/div&gt;&lt;div&gt;HTTPS&lt;/div&gt;&lt;div&gt;HTTP&lt;/div&gt;" style="fillColor=none;strokeColor=#DD3522;verticalAlign=top;fontStyle=0;fontColor=#DD3522;whiteSpace=wrap;html=1;" parent="1" vertex="1">
          <mxGeometry x="-750" y="1320" width="100" height="80" as="geometry" />
        </mxCell>
        <mxCell id="vA6beivC7NnF0CchnOPw-28" value="Security group&lt;div&gt;&lt;br&gt;&lt;/div&gt;&lt;div&gt;HTTPS&lt;/div&gt;&lt;div&gt;HTTP&lt;/div&gt;" style="fillColor=none;strokeColor=#DD3522;verticalAlign=top;fontStyle=0;fontColor=#DD3522;whiteSpace=wrap;html=1;" parent="1" vertex="1">
          <mxGeometry x="200" y="1660" width="100" height="80" as="geometry" />
        </mxCell>
        <mxCell id="vA6beivC7NnF0CchnOPw-31" value="" style="group" parent="1" vertex="1" connectable="0">
          <mxGeometry x="270" y="1950" width="210" height="150" as="geometry" />
        </mxCell>
        <mxCell id="vA6beivC7NnF0CchnOPw-21" value="" style="group" parent="vA6beivC7NnF0CchnOPw-31" vertex="1" connectable="0">
          <mxGeometry width="210" height="90" as="geometry" />
        </mxCell>
        <mxCell id="4bWy2ilgJK2MeaBhGG6L-55" value="" style="rounded=1;whiteSpace=wrap;html=1;container=0;" parent="vA6beivC7NnF0CchnOPw-21" vertex="1">
          <mxGeometry width="210" height="90" as="geometry" />
        </mxCell>
        <mxCell id="4bWy2ilgJK2MeaBhGG6L-54" value="" style="sketch=0;points=[[0,0,0],[0.25,0,0],[0.5,0,0],[0.75,0,0],[1,0,0],[0,1,0],[0.25,1,0],[0.5,1,0],[0.75,1,0],[1,1,0],[0,0.25,0],[0,0.5,0],[0,0.75,0],[1,0.25,0],[1,0.5,0],[1,0.75,0]];outlineConnect=0;fontColor=#232F3E;fillColor=#C925D1;strokeColor=#ffffff;dashed=0;verticalLabelPosition=bottom;verticalAlign=top;align=center;html=1;fontSize=12;fontStyle=0;aspect=fixed;shape=mxgraph.aws4.resourceIcon;resIcon=mxgraph.aws4.rds;container=0;" parent="vA6beivC7NnF0CchnOPw-21" vertex="1">
          <mxGeometry x="110" y="6" width="78" height="78" as="geometry" />
        </mxCell>
        <mxCell id="4bWy2ilgJK2MeaBhGG6L-56" value="&lt;font style=&quot;font-size: 18px;&quot;&gt;&lt;b&gt;RDS&lt;/b&gt;&lt;/font&gt;" style="text;html=1;align=center;verticalAlign=middle;whiteSpace=wrap;rounded=0;container=0;" parent="vA6beivC7NnF0CchnOPw-21" vertex="1">
          <mxGeometry x="20" y="30" width="60" height="30" as="geometry" />
        </mxCell>
        <mxCell id="vA6beivC7NnF0CchnOPw-30" value="Security group&lt;div&gt;&lt;br&gt;&lt;/div&gt;&lt;div&gt;TCP:5432&lt;/div&gt;" style="fillColor=none;strokeColor=#DD3522;verticalAlign=top;fontStyle=0;fontColor=#DD3522;whiteSpace=wrap;html=1;" parent="vA6beivC7NnF0CchnOPw-31" vertex="1">
          <mxGeometry x="55" y="90" width="100" height="60" as="geometry" />
        </mxCell>
        <mxCell id="vA6beivC7NnF0CchnOPw-38" value="&lt;font style=&quot;font-size: 18px;&quot;&gt;&lt;b&gt;VPC 10.1.0.0/16&lt;/b&gt;&lt;/font&gt;" style="text;html=1;align=center;verticalAlign=middle;whiteSpace=wrap;rounded=0;movable=1;resizable=1;rotatable=1;deletable=1;editable=1;locked=0;connectable=1;" parent="1" vertex="1">
          <mxGeometry x="60.001270833333336" y="1339.999633027523" width="181" height="69.35779816513761" as="geometry" />
        </mxCell>
        <mxCell id="4bWy2ilgJK2MeaBhGG6L-29" value="" style="shape=cylinder3;whiteSpace=wrap;html=1;boundedLbl=1;backgroundOutline=1;size=15;rotation=90;" parent="1" vertex="1">
          <mxGeometry x="832.87" y="1973.38" width="115" height="1486.75" as="geometry" />
        </mxCell>
        <mxCell id="4bWy2ilgJK2MeaBhGG6L-28" value="" style="sketch=0;pointerEvents=1;shadow=0;dashed=0;html=1;strokeColor=none;fillColor=#DF8C42;labelPosition=center;verticalLabelPosition=bottom;verticalAlign=top;align=center;outlineConnect=0;shape=mxgraph.veeam2.wireguard;container=0;" parent="1" vertex="1">
          <mxGeometry x="854.87" y="2665.76" width="105" height="102" as="geometry" />
        </mxCell>
        <mxCell id="vA6beivC7NnF0CchnOPw-22" value="" style="group" parent="1" vertex="1" connectable="0">
          <mxGeometry x="1430" y="2460.004815348515" width="230" height="222.77518465148478" as="geometry" />
        </mxCell>
        <mxCell id="4bWy2ilgJK2MeaBhGG6L-32" value="" style="shape=cylinder3;whiteSpace=wrap;html=1;boundedLbl=1;backgroundOutline=1;size=15;container=0;" parent="vA6beivC7NnF0CchnOPw-22" vertex="1">
          <mxGeometry x="95" y="107.77518465148478" width="60" height="115" as="geometry" />
        </mxCell>
        <mxCell id="4bWy2ilgJK2MeaBhGG6L-24" value="" style="rounded=1;whiteSpace=wrap;html=1;container=0;" parent="vA6beivC7NnF0CchnOPw-22" vertex="1">
          <mxGeometry width="230" height="107.77747242154894" as="geometry" />
        </mxCell>
        <mxCell id="4bWy2ilgJK2MeaBhGG6L-25" value="" style="sketch=0;points=[[0,0,0],[0.25,0,0],[0.5,0,0],[0.75,0,0],[1,0,0],[0,1,0],[0.25,1,0],[0.5,1,0],[0.75,1,0],[1,1,0],[0,0.25,0],[0,0.5,0],[0,0.75,0],[1,0.25,0],[1,0.5,0],[1,0.75,0]];outlineConnect=0;fontColor=#232F3E;fillColor=#ED7100;strokeColor=#ffffff;dashed=0;verticalLabelPosition=bottom;verticalAlign=top;align=center;html=1;fontSize=12;fontStyle=0;aspect=fixed;shape=mxgraph.aws4.resourceIcon;resIcon=mxgraph.aws4.ec2;container=0;" parent="vA6beivC7NnF0CchnOPw-22" vertex="1">
          <mxGeometry x="130" y="15.676723261316056" width="75.63614934325757" height="75.63614934325757" as="geometry" />
        </mxCell>
        <mxCell id="4bWy2ilgJK2MeaBhGG6L-26" value="&lt;b&gt;&lt;font style=&quot;font-size: 18px;&quot;&gt;Private&lt;/font&gt;&lt;/b&gt;" style="text;html=1;align=center;verticalAlign=middle;whiteSpace=wrap;rounded=0;container=0;" parent="vA6beivC7NnF0CchnOPw-22" vertex="1">
          <mxGeometry y="29.393856114968003" width="115" height="48.98976019161315" as="geometry" />
        </mxCell>
        <mxCell id="vA6beivC7NnF0CchnOPw-32" value="" style="group" parent="1" vertex="1" connectable="0">
          <mxGeometry x="540" y="2460" width="275" height="204.99999999999955" as="geometry" />
        </mxCell>
        <mxCell id="4bWy2ilgJK2MeaBhGG6L-31" value="" style="shape=cylinder3;whiteSpace=wrap;html=1;boundedLbl=1;backgroundOutline=1;size=15;container=0;" parent="vA6beivC7NnF0CchnOPw-32" vertex="1">
          <mxGeometry x="107.5" y="89.99999999999955" width="60" height="115" as="geometry" />
        </mxCell>
        <mxCell id="vA6beivC7NnF0CchnOPw-20" value="" style="group" parent="vA6beivC7NnF0CchnOPw-32" vertex="1" connectable="0">
          <mxGeometry width="275" height="107.7800000000002" as="geometry" />
        </mxCell>
        <mxCell id="4bWy2ilgJK2MeaBhGG6L-19" value="" style="rounded=1;whiteSpace=wrap;html=1;container=0;" parent="vA6beivC7NnF0CchnOPw-20" vertex="1">
          <mxGeometry width="275" height="107.78" as="geometry" />
        </mxCell>
        <mxCell id="4bWy2ilgJK2MeaBhGG6L-18" value="&lt;span style=&quot;color: rgba(0, 0, 0, 0); font-family: monospace; font-size: 0px; text-align: start;&quot;&gt;%3CmxGraphModel%3E%3Croot%3E%3CmxCell%20id%3D%220%22%2F%3E%3CmxCell%20id%3D%221%22%20parent%3D%220%22%2F%3E%3CmxCell%20id%3D%222%22%20value%3D%22%22%20style%3D%22shape%3Dcylinder3%3BwhiteSpace%3Dwrap%3Bhtml%3D1%3BboundedLbl%3D1%3BbackgroundOutline%3D1%3Bsize%3D15%3B%22%20vertex%3D%221%22%20parent%3D%221%22%3E%3CmxGeometry%20x%3D%22400%22%20y%3D%222440%22%20width%3D%2260%22%20height%3D%22115%22%20as%3D%22geometry%22%2F%3E%3C%2FmxCell%3E%3C%2Froot%3E%3C%2FmxGraphModel%3E&lt;/span&gt;&lt;span style=&quot;color: rgba(0, 0, 0, 0); font-family: monospace; font-size: 0px; text-align: start;&quot;&gt;%3CmxGraphModel%3E%3Croot%3E%3CmxCell%20id%3D%220%22%2F%3E%3CmxCell%20id%3D%221%22%20parent%3D%220%22%2F%3E%3CmxCell%20id%3D%222%22%20value%3D%22%22%20style%3D%22shape%3Dcylinder3%3BwhiteSpace%3Dwrap%3Bhtml%3D1%3BboundedLbl%3D1%3BbackgroundOutline%3D1%3Bsize%3D15%3B%22%20vertex%3D%221%22%20parent%3D%221%22%3E%3CmxGeometry%20x%3D%22400%22%20y%3D%222440%22%20width%3D%2260%22%20height%3D%22115%22%20as%3D%22geometry%22%2F%3E%3C%2FmxCell%3E%3C%2Froot%3E%3C%2FmxGraphModel%3E&lt;/span&gt;" style="sketch=0;points=[[0,0,0],[0.25,0,0],[0.5,0,0],[0.75,0,0],[1,0,0],[0,1,0],[0.25,1,0],[0.5,1,0],[0.75,1,0],[1,1,0],[0,0.25,0],[0,0.5,0],[0,0.75,0],[1,0.25,0],[1,0.5,0],[1,0.75,0]];outlineConnect=0;fontColor=#232F3E;fillColor=#ED7100;strokeColor=#ffffff;dashed=0;verticalLabelPosition=bottom;verticalAlign=top;align=center;html=1;fontSize=12;fontStyle=0;aspect=fixed;shape=mxgraph.aws4.resourceIcon;resIcon=mxgraph.aws4.ec2;container=0;" parent="vA6beivC7NnF0CchnOPw-20" vertex="1">
          <mxGeometry x="179.86673407961734" y="15.681111111111022" width="76.42424242424242" height="76.42424242424242" as="geometry" />
        </mxCell>
        <mxCell id="4bWy2ilgJK2MeaBhGG6L-20" value="&lt;b&gt;&lt;font style=&quot;font-size: 18px;&quot;&gt;Bastion&lt;/font&gt;&lt;/b&gt;" style="text;html=1;align=center;verticalAlign=middle;whiteSpace=wrap;rounded=0;container=0;" parent="vA6beivC7NnF0CchnOPw-20" vertex="1">
          <mxGeometry x="12.059999999999945" y="30" width="142.94" height="48.39" as="geometry" />
        </mxCell>
        <mxCell id="BQTzeHHqQLochg_NkmRf-13" value="" style="group" vertex="1" connectable="0" parent="1">
          <mxGeometry x="-531" y="3220" width="130" height="60" as="geometry" />
        </mxCell>
        <mxCell id="BQTzeHHqQLochg_NkmRf-11" value="" style="rounded=1;whiteSpace=wrap;html=1;" vertex="1" parent="BQTzeHHqQLochg_NkmRf-13">
          <mxGeometry x="5" width="120" height="60" as="geometry" />
        </mxCell>
        <mxCell id="BQTzeHHqQLochg_NkmRf-12" value="&lt;span style=&quot;font-size: 18px;&quot;&gt;&lt;b&gt;Кэш&lt;/b&gt;&lt;/span&gt;" style="text;html=1;align=center;verticalAlign=middle;whiteSpace=wrap;rounded=0;container=0;" vertex="1" parent="BQTzeHHqQLochg_NkmRf-13">
          <mxGeometry y="15" width="130" height="30" as="geometry" />
        </mxCell>
        <mxCell id="BQTzeHHqQLochg_NkmRf-15" style="edgeStyle=orthogonalEdgeStyle;rounded=0;orthogonalLoop=1;jettySize=auto;html=1;entryX=0.5;entryY=0;entryDx=0;entryDy=0;" edge="1" parent="1" source="kthAWzpPzz_Ot7cgUqlj-5" target="BQTzeHHqQLochg_NkmRf-11">
          <mxGeometry relative="1" as="geometry" />
        </mxCell>
        <mxCell id="BQTzeHHqQLochg_NkmRf-16" value="" style="group" vertex="1" connectable="0" parent="1">
          <mxGeometry x="-580" y="3065" width="228" height="90" as="geometry" />
        </mxCell>
        <mxCell id="kthAWzpPzz_Ot7cgUqlj-5" value="" style="rounded=1;whiteSpace=wrap;html=1;container=0;" parent="BQTzeHHqQLochg_NkmRf-16" vertex="1">
          <mxGeometry width="227.99999999999997" height="90" as="geometry" />
        </mxCell>
        <mxCell id="kthAWzpPzz_Ot7cgUqlj-3" value="" style="sketch=0;points=[[0,0,0],[0.25,0,0],[0.5,0,0],[0.75,0,0],[1,0,0],[0,1,0],[0.25,1,0],[0.5,1,0],[0.75,1,0],[1,1,0],[0,0.25,0],[0,0.5,0],[0,0.75,0],[1,0.25,0],[1,0.5,0],[1,0.75,0]];outlineConnect=0;fontColor=#232F3E;fillColor=#8C4FFF;strokeColor=#ffffff;dashed=0;verticalLabelPosition=bottom;verticalAlign=top;align=center;html=1;fontSize=12;fontStyle=0;aspect=fixed;shape=mxgraph.aws4.resourceIcon;resIcon=mxgraph.aws4.cloudfront;container=0;" parent="BQTzeHHqQLochg_NkmRf-16" vertex="1">
          <mxGeometry x="130" y="6" width="78" height="78" as="geometry" />
        </mxCell>
        <mxCell id="kthAWzpPzz_Ot7cgUqlj-7" value="&lt;font style=&quot;font-size: 18px;&quot;&gt;&lt;b&gt;CloudFront&lt;/b&gt;&lt;/font&gt;" style="text;html=1;align=center;verticalAlign=middle;whiteSpace=wrap;rounded=0;container=0;" parent="BQTzeHHqQLochg_NkmRf-16" vertex="1">
          <mxGeometry y="30" width="130" height="30" as="geometry" />
        </mxCell>
        <mxCell id="BQTzeHHqQLochg_NkmRf-17" value="" style="group" vertex="1" connectable="0" parent="1">
          <mxGeometry x="-287" y="3060" width="170" height="100" as="geometry" />
        </mxCell>
        <mxCell id="4bWy2ilgJK2MeaBhGG6L-60" value="" style="rounded=1;whiteSpace=wrap;html=1;container=0;" parent="BQTzeHHqQLochg_NkmRf-17" vertex="1">
          <mxGeometry width="170" height="100" as="geometry" />
        </mxCell>
        <mxCell id="4bWy2ilgJK2MeaBhGG6L-62" value="&lt;font style=&quot;font-size: 18px;&quot;&gt;&lt;b&gt;S3&lt;/b&gt;&lt;/font&gt;" style="text;html=1;align=center;verticalAlign=middle;whiteSpace=wrap;rounded=0;container=0;" parent="BQTzeHHqQLochg_NkmRf-17" vertex="1">
          <mxGeometry y="35" width="60" height="30" as="geometry" />
        </mxCell>
        <mxCell id="4bWy2ilgJK2MeaBhGG6L-58" value="" style="outlineConnect=0;dashed=0;verticalLabelPosition=bottom;verticalAlign=top;align=center;html=1;shape=mxgraph.aws3.s3;fillColor=#E05243;gradientColor=none;container=0;" parent="BQTzeHHqQLochg_NkmRf-17" vertex="1">
          <mxGeometry x="80" y="8.5" width="70" height="86.5" as="geometry" />
        </mxCell>
        <mxCell id="BQTzeHHqQLochg_NkmRf-18" style="edgeStyle=orthogonalEdgeStyle;rounded=0;orthogonalLoop=1;jettySize=auto;html=1;" edge="1" parent="1" source="kthAWzpPzz_Ot7cgUqlj-5" target="4bWy2ilgJK2MeaBhGG6L-60">
          <mxGeometry relative="1" as="geometry" />
        </mxCell>
        <mxCell id="BQTzeHHqQLochg_NkmRf-22" value="Security group&lt;div&gt;&lt;br&gt;&lt;/div&gt;&lt;div&gt;SSH&lt;/div&gt;" style="fillColor=none;strokeColor=#DD3522;verticalAlign=top;fontStyle=0;fontColor=#DD3522;whiteSpace=wrap;html=1;" vertex="1" parent="1">
          <mxGeometry x="640" y="2400" width="100" height="60" as="geometry" />
        </mxCell>
        <mxCell id="BQTzeHHqQLochg_NkmRf-23" value="Security group&lt;div&gt;&lt;br&gt;&lt;/div&gt;&lt;div&gt;SSH&lt;/div&gt;" style="fillColor=none;strokeColor=#DD3522;verticalAlign=top;fontStyle=0;fontColor=#DD3522;whiteSpace=wrap;html=1;" vertex="1" parent="1">
          <mxGeometry x="1505" y="2390" width="100" height="60" as="geometry" />
        </mxCell>
        <mxCell id="BQTzeHHqQLochg_NkmRf-25" style="edgeStyle=orthogonalEdgeStyle;rounded=0;orthogonalLoop=1;jettySize=auto;html=1;entryX=0;entryY=0.5;entryDx=0;entryDy=0;" edge="1" parent="1" source="4bWy2ilgJK2MeaBhGG6L-13" target="4bWy2ilgJK2MeaBhGG6L-51">
          <mxGeometry relative="1" as="geometry" />
        </mxCell>
        <mxCell id="BQTzeHHqQLochg_NkmRf-26" style="edgeStyle=orthogonalEdgeStyle;rounded=0;orthogonalLoop=1;jettySize=auto;html=1;entryX=0;entryY=0.5;entryDx=0;entryDy=0;" edge="1" parent="1" source="4bWy2ilgJK2MeaBhGG6L-13" target="4bWy2ilgJK2MeaBhGG6L-55">
          <mxGeometry relative="1" as="geometry" />
        </mxCell>
        <mxCell id="BQTzeHHqQLochg_NkmRf-27" style="edgeStyle=orthogonalEdgeStyle;rounded=0;orthogonalLoop=1;jettySize=auto;html=1;entryX=0;entryY=0.5;entryDx=0;entryDy=0;" edge="1" parent="1" source="4bWy2ilgJK2MeaBhGG6L-13" target="4bWy2ilgJK2MeaBhGG6L-19">
          <mxGeometry relative="1" as="geometry" />
        </mxCell>
        <mxCell id="BQTzeHHqQLochg_NkmRf-28" style="edgeStyle=orthogonalEdgeStyle;rounded=0;orthogonalLoop=1;jettySize=auto;html=1;" edge="1" parent="1" source="4bWy2ilgJK2MeaBhGG6L-19" target="4bWy2ilgJK2MeaBhGG6L-24">
          <mxGeometry relative="1" as="geometry" />
        </mxCell>
        <mxCell id="vA6beivC7NnF0CchnOPw-18" value="" style="shape=cylinder3;whiteSpace=wrap;html=1;boundedLbl=1;backgroundOutline=1;size=15;rotation=90;" parent="1" vertex="1">
          <mxGeometry x="539.71" y="1859.7" width="40" height="793.53" as="geometry" />
        </mxCell>
        <mxCell id="vA6beivC7NnF0CchnOPw-19" value="" style="group" parent="1" vertex="1" connectable="0">
          <mxGeometry x="945" y="2190" width="119.44000000000005" height="114.15000000000009" as="geometry" />
        </mxCell>
        <mxCell id="vA6beivC7NnF0CchnOPw-17" value="" style="rounded=1;whiteSpace=wrap;html=1;" parent="vA6beivC7NnF0CchnOPw-19" vertex="1">
          <mxGeometry width="119.44" height="114.15" as="geometry" />
        </mxCell>
        <mxCell id="vA6beivC7NnF0CchnOPw-13" value="" style="points=[];aspect=fixed;html=1;align=center;shadow=0;dashed=0;fillColor=#FF6A00;strokeColor=none;shape=mxgraph.alibaba_cloud.nat_gateway;rotation=90;container=0;" parent="vA6beivC7NnF0CchnOPw-19" vertex="1">
          <mxGeometry x="15.360000000000014" y="21.220000000000255" width="88.72" height="71.7" as="geometry" />
        </mxCell>
      </root>
    </mxGraphModel>
  </diagram>
</mxfile>
